<?xml version="1.0" encoding="utf-8"?>
<!-- Generator: Adobe Illustrator 28.3.0, SVG Export Plug-In . SVG Version: 6.00 Build 0)  -->
<svg version="1.1" id="_图层_1" xmlns="http://www.w3.org/2000/svg" xmlns:xlink="http://www.w3.org/1999/xlink" x="0px" y="0px"
	 viewBox="0 0 861.7 578.9" style="enable-background:new 0 0 861.7 578.9;" xml:space="preserve">
<style type="text/css">
	.st0{fill:#272727;stroke:#000000;stroke-width:4.1279;stroke-miterlimit:10;}
	.st1{fill:#474747;}
	.st2{fill:none;stroke:#000000;stroke-width:4.1279;stroke-miterlimit:10;}
	.st3{opacity:0.62;fill:#DCDCDC;stroke:#000000;stroke-width:1.5479;stroke-miterlimit:10;enable-background:new    ;}
	.st4{opacity:0.51;fill:#E3E3E3;stroke:#000000;stroke-width:1.5479;stroke-miterlimit:10;enable-background:new    ;}
	.st5{opacity:0.92;fill:#E3E3E3;stroke:#000000;stroke-width:1.5479;stroke-miterlimit:10;enable-background:new    ;}
	.st6{fill:#E3E3E3;stroke:#000000;stroke-width:1.5479;stroke-miterlimit:10;}
	.st7{opacity:0.74;fill:#E3E3E3;stroke:#000000;stroke-width:1.5479;stroke-miterlimit:10;enable-background:new    ;}
	.st8{opacity:0.83;fill:#DCDCDC;stroke:#000000;stroke-width:1.5479;stroke-miterlimit:10;enable-background:new    ;}
</style>
<g>
	<path class="st0" d="M415.9,191.3c-37.3-5-71.5,12.7-84.5,41.2c-3.9-0.9-8-1.5-12.2-1.8c-38-2.7-70.8,21.7-73.2,54.6
		c-2.5,32.9,26.3,61.8,64.3,64.5c26.1,1.9,49.8-9.1,62.8-26.8c7.6,3.3,15.8,5.6,24.6,6.8c44.4,5.9,84.4-20.3,89.5-58.5
		C492.1,233,460.2,197.2,415.9,191.3L415.9,191.3L415.9,191.3z"/>
	<g>
		<path class="st1" d="M486.9,258.1c-20.2-1.5-39.4,0.7-56.5,5.7c-9.6-4.6-20.3-7.6-31.9-8.5c-35.5-2.6-67,16-79.1,43.9
			c-59.7,1.7-106.5,24.4-109.3,56.1c-3.3,37.3,55.1,73.8,129.5,80.9c44.4,4.2,85-2.9,111.3-17.2c7.6,1.6,15.5,2.8,23.7,3.4
			c65.3,4.7,121-28.2,124.4-73.6S552.2,262.8,486.9,258.1L486.9,258.1L486.9,258.1z"/>
		<path class="st2" d="M486.9,258.1c-20.2-1.5-39.4,0.7-56.5,5.7c-9.6-4.6-20.3-7.6-31.9-8.5c-35.5-2.6-67,16-79.1,43.9
			c-59.7,1.7-106.5,24.4-109.3,56.1c-3.3,37.3,55.1,73.8,129.5,80.9c44.4,4.2,85-2.9,111.3-17.2c7.6,1.6,15.5,2.8,23.7,3.4
			c65.3,4.7,121-28.2,124.4-73.6S552.2,262.8,486.9,258.1L486.9,258.1L486.9,258.1z"/>
	</g>
	<path class="st3" d="M543.2,212.2c1.3-8.2,3.4-16.2,6-24.1c1.4-4.2-4-5.7-5.4-1.6c-2.8,8.5-4.9,17.1-6.3,25.9
		C536.7,216.7,542.5,216.5,543.2,212.2L543.2,212.2L543.2,212.2z"/>
	<path class="st4" d="M567.8,205.6c1-4.3-4.4-5.9-5.4-1.6c-1.2,4.8-2.7,9.3-4.8,13.7c-1.9,3.9,2.9,7.2,4.7,3.3
		C564.6,216,566.5,210.9,567.8,205.6L567.8,205.6L567.8,205.6z"/>
	<path class="st5" d="M601.5,197.6c-11.8,10-23,21-33.4,33c-2.8,3.2,1,7.9,3.7,4.7c10-11.6,20.8-22.3,32.2-31.9
		C607.1,200.8,604.7,195,601.5,197.6L601.5,197.6z"/>
	<path class="st6" d="M605.9,223.7c-3.5,2.1-6.7,4.5-9.8,7.2c-0.6,0.3-1.2,0.8-1.5,1.4c-1,1.2-1,3.4-0.1,4.5
		c1.1,1.4,2.8,1.1,4.1-0.1c3.1-2.8,6.4-5.2,9.9-7.3C611.8,227.4,609.3,221.7,605.9,223.7L605.9,223.7L605.9,223.7z"/>
	<path class="st7" d="M648.4,230c-15.8,5.1-31.1,13-45.2,23.4c-3.3,2.4-0.8,8.2,2.5,5.8c13.8-10.1,28.5-17.7,43.8-22.7
		C653.2,235.3,652.1,228.8,648.4,230L648.4,230z"/>
	<path class="st6" d="M624.5,266.5c-2,0.2-4,0.6-5.9,1.3c-1.4,0.5-2.8,1.6-4.2,2.2c-2.2-0.5-4.9,2.2-3.5,4.9
		c1.5,2.8,3.8,2.1,6.1,0.6c2.2-1.4,4.7-2.1,7.1-2.3C627.8,273,628.2,266.2,624.5,266.5L624.5,266.5z"/>
	<path class="st8" d="M521.3,198.7c0.9-8,2.2-15.9,4-23.7c0.5-0.9,0.8-2,0.7-2.9c2.2-9,5-17.9,8.4-26.6c1.6-4.1-3.9-5.6-5.4-1.6
		c-6.9,17.7-11.4,36.2-13.5,55C515.1,203.3,520.8,203,521.3,198.7L521.3,198.7L521.3,198.7z"/>
</g>
</svg>
