<?xml version="1.0" encoding="utf-8"?>
<!-- Generator: Adobe Illustrator 28.3.0, SVG Export Plug-In . SVG Version: 6.00 Build 0)  -->
<svg version="1.1" id="_图层_1" xmlns="http://www.w3.org/2000/svg" xmlns:xlink="http://www.w3.org/1999/xlink" x="0px" y="0px"
	 viewBox="0 0 861.7 578.9" style="enable-background:new 0 0 861.7 578.9;" xml:space="preserve">
<style type="text/css">
	.st0{fill:#00315C;stroke:#000000;stroke-width:4.02;stroke-miterlimit:10;}
	.st1{fill:#005AA2;}
	.st2{fill:none;stroke:#000000;stroke-width:4.02;stroke-miterlimit:10;}
	.st3{opacity:0.62;fill:#FCEE21;stroke:#000000;stroke-width:1.51;stroke-miterlimit:10;enable-background:new    ;}
	.st4{opacity:0.51;fill:#FFFF00;stroke:#000000;stroke-width:1.51;stroke-miterlimit:10;enable-background:new    ;}
	.st5{opacity:0.92;fill:#FFFF00;stroke:#000000;stroke-width:1.51;stroke-miterlimit:10;enable-background:new    ;}
	.st6{fill:#FFFF00;stroke:#000000;stroke-width:1.51;stroke-miterlimit:10;}
	.st7{opacity:0.74;fill:#FFFF00;stroke:#000000;stroke-width:1.51;stroke-miterlimit:10;enable-background:new    ;}
	.st8{opacity:0.83;fill:#FCEE21;stroke:#000000;stroke-width:1.51;stroke-miterlimit:10;enable-background:new    ;}
	.st9{fill:#272727;stroke:#000000;stroke-width:4.1279;stroke-miterlimit:10;}
	.st10{fill:#474747;}
	.st11{fill:none;stroke:#000000;stroke-width:4.1279;stroke-miterlimit:10;}
	.st12{opacity:0.62;fill:#DCDCDC;stroke:#000000;stroke-width:1.5479;stroke-miterlimit:10;enable-background:new    ;}
	.st13{opacity:0.51;fill:#E3E3E3;stroke:#000000;stroke-width:1.5479;stroke-miterlimit:10;enable-background:new    ;}
	.st14{opacity:0.92;fill:#E3E3E3;stroke:#000000;stroke-width:1.5479;stroke-miterlimit:10;enable-background:new    ;}
	.st15{fill:#E3E3E3;stroke:#000000;stroke-width:1.5479;stroke-miterlimit:10;}
	.st16{opacity:0.74;fill:#E3E3E3;stroke:#000000;stroke-width:1.5479;stroke-miterlimit:10;enable-background:new    ;}
	.st17{opacity:0.83;fill:#DCDCDC;stroke:#000000;stroke-width:1.5479;stroke-miterlimit:10;enable-background:new    ;}
</style>
<path class="st0" d="M416.2,193.8c-36.3-4.9-69.7,12.4-82.3,40.2c-3.9-0.9-7.8-1.5-11.9-1.8c-37-2.7-68.9,21.2-71.3,53.2
	c-2.4,32.1,25.7,60.2,62.7,62.9c25.4,1.8,48.5-8.9,61.2-26.1c7.4,3.2,15.4,5.5,24,6.6c43.2,5.8,82.2-19.8,87.2-57
	S459.5,199.6,416.2,193.8L416.2,193.8L416.2,193.8z"/>
<g>
	<path class="st1" d="M485.4,258.9c-19.7-1.4-38.4,0.7-55.1,5.5c-9.3-4.5-19.8-7.4-31-8.2c-34.5-2.5-65.3,15.6-77,42.8
		c-58.2,1.6-103.7,23.7-106.5,54.6c-3.3,36.3,53.7,71.9,126.2,78.8c43.2,4.1,82.8-2.8,108.5-16.8c7.4,1.6,15.1,2.7,23.1,3.3
		c63.6,4.6,117.9-27.5,121.1-71.7S549.1,263.5,485.4,258.9L485.4,258.9L485.4,258.9z"/>
	<path class="st2" d="M485.4,258.9c-19.7-1.4-38.4,0.7-55.1,5.5c-9.3-4.5-19.8-7.4-31-8.2c-34.5-2.5-65.3,15.6-77,42.8
		c-58.2,1.6-103.7,23.7-106.5,54.6c-3.3,36.3,53.7,71.9,126.2,78.8c43.2,4.1,82.8-2.8,108.5-16.8c7.4,1.6,15.1,2.7,23.1,3.3
		c63.6,4.6,117.9-27.5,121.1-71.7S549.1,263.5,485.4,258.9L485.4,258.9L485.4,258.9z"/>
</g>
<path class="st3" d="M540.3,214.2c1.3-8,3.3-15.8,5.8-23.5c1.4-4.1-3.9-5.6-5.3-1.5c-2.8,8.3-4.8,16.7-6.2,25.2
	C534,218.6,539.6,218.4,540.3,214.2L540.3,214.2L540.3,214.2z"/>
<path class="st4" d="M564.2,207.7c1-4.1-4.3-5.7-5.3-1.5c-1.1,4.6-2.7,9.1-4.7,13.4c-1.8,3.8,2.8,7,4.6,3.2
	C561.2,217.9,563,213,564.2,207.7L564.2,207.7L564.2,207.7z"/>
<path class="st5" d="M597.1,200c-11.5,9.7-22.4,20.4-32.5,32.1c-2.7,3.1,0.9,7.7,3.6,4.6c9.8-11.3,20.2-21.7,31.3-31.1
	C602.6,203.1,600.2,197.4,597.1,200z"/>
<path class="st6" d="M601.3,225.5c-3.4,2-6.5,4.4-9.6,7.1c-0.6,0.2-1.1,0.8-1.5,1.4c-1,1.2-0.9,3.4-0.1,4.4c1.1,1.3,2.7,1.1,4-0.1
	c3-2.8,6.3-5.1,9.6-7.1C607.1,229.1,604.7,223.5,601.3,225.5L601.3,225.5L601.3,225.5z"/>
<path class="st7" d="M642.8,231.6c-15.4,5-30.3,12.7-44.1,22.8c-3.2,2.3-0.8,8,2.4,5.6c13.4-9.8,27.8-17.3,42.7-22.1
	C647.4,236.7,646.3,230.4,642.8,231.6L642.8,231.6z"/>
<path class="st6" d="M619.5,267.1c-1.9,0.2-3.8,0.5-5.7,1.2c-1.3,0.5-2.8,1.6-4.1,2.1c-2.1-0.5-4.8,2.2-3.4,4.8c1.5,2.7,3.7,2,6,0.6
	c2.2-1.3,4.5-2,6.9-2.2C622.7,273.4,623.1,266.8,619.5,267.1L619.5,267.1z"/>
<path class="st8" d="M519,201c0.8-7.8,2.2-15.5,3.9-23.1c0.5-0.8,0.8-1.9,0.7-2.9c2.2-8.8,4.9-17.4,8.2-25.9c1.6-4-3.8-5.5-5.3-1.5
	c-6.7,17.2-11.1,35.3-13.1,53.6C512.9,205.5,518.5,205.2,519,201L519,201L519,201z"/>
<g>
	<path class="st9" d="M471.1,702.5c-37.3-5-71.5,12.7-84.5,41.2c-3.9-0.9-8-1.5-12.2-1.8c-38-2.7-70.8,21.7-73.2,54.6
		c-2.5,32.9,26.3,61.8,64.3,64.5c26.1,1.9,49.8-9.1,62.8-26.8c7.6,3.3,15.8,5.6,24.6,6.8c44.4,5.9,84.4-20.3,89.5-58.5
		C547.4,744.3,515.5,708.5,471.1,702.5L471.1,702.5L471.1,702.5z"/>
	<g>
		<path class="st10" d="M542.2,769.4c-20.2-1.5-39.4,0.7-56.5,5.7c-9.6-4.6-20.3-7.6-31.9-8.5c-35.5-2.6-67,16-79.1,43.9
			c-59.7,1.7-106.5,24.4-109.3,56.1c-3.3,37.3,55.1,73.8,129.5,80.9c44.4,4.2,85-2.9,111.3-17.2c7.6,1.6,15.5,2.8,23.7,3.4
			c65.3,4.7,121-28.2,124.4-73.6C657.7,814.6,607.5,774.1,542.2,769.4L542.2,769.4L542.2,769.4z"/>
		<path class="st11" d="M542.2,769.4c-20.2-1.5-39.4,0.7-56.5,5.7c-9.6-4.6-20.3-7.6-31.9-8.5c-35.5-2.6-67,16-79.1,43.9
			c-59.7,1.7-106.5,24.4-109.3,56.1c-3.3,37.3,55.1,73.8,129.5,80.9c44.4,4.2,85-2.9,111.3-17.2c7.6,1.6,15.5,2.8,23.7,3.4
			c65.3,4.7,121-28.2,124.4-73.6C657.7,814.6,607.5,774.1,542.2,769.4L542.2,769.4L542.2,769.4z"/>
	</g>
	<path class="st12" d="M598.5,723.5c1.3-8.2,3.4-16.2,6-24.1c1.4-4.2-4-5.7-5.4-1.6c-2.8,8.5-4.9,17.1-6.3,25.9
		C592,728,597.8,727.8,598.5,723.5L598.5,723.5L598.5,723.5z"/>
	<path class="st13" d="M623.1,716.9c1-4.3-4.4-5.9-5.4-1.6c-1.2,4.8-2.7,9.3-4.8,13.7c-1.9,3.9,2.9,7.2,4.7,3.3
		C619.9,727.3,621.8,722.2,623.1,716.9L623.1,716.9L623.1,716.9z"/>
	<path class="st14" d="M656.8,708.9c-11.8,10-23,21-33.4,33c-2.8,3.2,1,7.9,3.7,4.7c10-11.6,20.8-22.3,32.2-31.9
		C662.4,712,660,706.3,656.8,708.9L656.8,708.9z"/>
	<path class="st15" d="M661.2,735c-3.5,2.1-6.7,4.5-9.8,7.2c-0.6,0.3-1.2,0.8-1.5,1.4c-1,1.2-1,3.4-0.1,4.5c1.1,1.4,2.8,1.1,4.1-0.1
		c3.1-2.8,6.4-5.2,9.9-7.3C667.1,738.7,664.6,733,661.2,735L661.2,735L661.2,735z"/>
	<path class="st16" d="M703.7,741.3c-15.8,5.1-31.1,13-45.2,23.4c-3.3,2.4-0.8,8.2,2.5,5.8c13.8-10.1,28.5-17.7,43.8-22.7
		C708.5,746.6,707.4,740.1,703.7,741.3L703.7,741.3z"/>
	<path class="st15" d="M679.8,777.8c-2,0.2-4,0.6-5.9,1.3c-1.4,0.5-2.8,1.6-4.2,2.2c-2.2-0.5-4.9,2.2-3.5,4.9
		c1.5,2.8,3.8,2.1,6.1,0.6c2.2-1.4,4.7-2.1,7.1-2.3C683.1,784.3,683.5,777.5,679.8,777.8L679.8,777.8z"/>
	<path class="st17" d="M576.6,710c0.9-8,2.2-15.9,4-23.7c0.5-0.9,0.8-2,0.7-2.9c2.2-9,5-17.9,8.4-26.6c1.6-4.1-3.9-5.6-5.4-1.6
		c-6.9,17.7-11.4,36.2-13.5,55C570.4,714.5,576.1,714.3,576.6,710L576.6,710L576.6,710z"/>
</g>
</svg>
