<?xml version="1.0" encoding="UTF-8"?>
<svg id="_图层_1" data-name=" 图层 1" xmlns="http://www.w3.org/2000/svg" viewBox="0 0 1280 1024">
  <defs>
    <style>
      .cls-1 {
        fill: #343434;
        stroke: #000;
        stroke-miterlimit: 10;
        stroke-width: 7.43px;
      }

      .cls-2 {
        fill: #a0a0a0;
      }
    </style>
  </defs>
  <path class="cls-1" d="M854.08,398.2c2.16-8.07,3.3-16.46,3.3-25.06,0-64.05-63.06-115.97-140.83-115.97-34.9,0-66.84,10.46-91.45,27.78-21-16.72-46.87-26.6-74.84-26.6-68.68,0-124.65,59.48-127.16,133.89h-.43c-74.03,0-134.05,49.03-134.05,109.51s60.01,109.51,134.05,109.51c32.66,0,62.59-9.54,85.84-25.41,30.55,12.43,72.2,20.08,118.1,20.08,42.33,0,81.03-6.5,110.76-17.25,24.54,13.13,54.89,20.9,87.77,20.9,81.53,0,147.62-47.78,147.62-106.71,0-51.78-51.02-94.93-118.68-104.66h0Z"/>
  <polygon class="cls-2" points="515.71 689.08 486.65 678.01 481.03 645.4 504.48 623.87 533.53 634.95 539.15 667.55 515.71 689.08"/>
  <polygon class="cls-2" points="602.15 701.16 576.9 711.97 555.57 693.85 559.49 664.93 584.73 654.11 606.07 672.23 602.15 701.16"/>
  <polygon class="cls-2" points="549.38 750.67 524.62 779.9 488.69 771.45 477.54 733.76 502.31 704.52 538.23 712.97 549.38 750.67"/>
  <polygon class="cls-2" points="660.52 719.27 641.56 725.61 626.96 711.12 631.33 690.28 650.3 683.93 664.89 698.42 660.52 719.27"/>
  <polygon class="cls-2" points="641.44 644.4 627.74 655.42 612.03 648.18 610.01 629.91 623.69 618.9 639.41 626.14 641.44 644.4"/>
  <polygon class="cls-2" points="602.15 778.44 581.24 783.58 566.65 766.67 572.96 744.63 593.87 739.48 608.46 756.39 602.15 778.44"/>
  <polygon class="cls-2" points="642.56 783.27 622.97 773.89 620.72 750.95 638.07 737.38 657.67 746.76 659.91 769.7 642.56 783.27"/>
  <polygon class="cls-2" points="702.06 667.35 682.39 677.43 664.42 664.15 666.13 640.78 685.81 630.69 703.77 643.97 702.06 667.35"/>
  <polygon class="cls-2" points="716.65 701.16 711 721.35 691.91 726.18 678.49 710.82 684.14 690.62 703.23 685.79 716.65 701.16"/>
  <polygon class="cls-2" points="788.5 663.72 758.76 682.9 728.45 664.79 727.88 627.49 757.62 608.31 787.93 626.43 788.5 663.72"/>
  <polygon class="cls-2" points="772.78 718.06 757.41 732.22 738.32 724.97 734.61 703.58 749.99 689.41 769.07 696.66 772.78 718.06"/>
  <polygon class="cls-2" points="745.84 760.32 731.51 791.86 698.95 794.28 680.73 765.16 695.06 733.62 727.62 731.21 745.84 760.32"/>
  <polygon class="cls-2" points="812.07 741 798.53 749.33 785.07 740.87 785.13 724.1 798.67 715.78 812.14 724.23 812.07 741"/>
  <polygon class="cls-2" points="827.79 693.91 810.77 701.47 796.18 689.4 798.6 669.76 815.62 662.21 830.22 674.28 827.79 693.91"/>
  <polygon class="cls-2" points="657.15 815.87 641.18 840.81 613.11 838.39 601.03 811.04 617 786.1 645.07 788.52 657.15 815.87"/>
  <polygon class="cls-2" points="563.98 815.87 553.06 831.39 535.09 828.98 528.06 811.04 538.98 795.51 556.94 797.93 563.98 815.87"/>
  <polygon class="cls-2" points="709.92 836.39 694.28 846.21 678.57 836.54 678.49 817.08 694.12 807.27 709.83 816.92 709.92 836.39"/>
  <polygon class="cls-2" points="789.63 804.13 775.64 820.54 755.43 815.71 749.22 794.47 763.21 778.06 783.42 782.89 789.63 804.13"/>
  <polygon class="cls-2" points="602.15 862.97 588.56 881.02 567.24 877.4 559.49 855.72 573.07 837.66 594.4 841.28 602.15 862.97"/>
  <polygon class="cls-2" points="661.64 872.62 649.48 883.2 634.9 877.17 632.46 860.55 644.62 849.98 659.21 856.01 661.64 872.62"/>
  <polygon class="cls-2" points="705.43 877.46 697.05 883.4 688.07 878.57 687.47 867.79 695.84 861.84 704.83 866.68 705.43 877.46"/>
  <polygon class="cls-2" points="762.68 867.79 750.11 876.72 736.64 869.48 735.73 853.3 748.31 844.37 761.78 851.62 762.68 867.79"/>
</svg>