<?xml version="1.0" encoding="UTF-8"?>
<svg id="_图层_1" xmlns="http://www.w3.org/2000/svg" version="1.1" viewBox="0 0 1280 1024">
  <!-- Generator: Adobe Illustrator 29.3.1, SVG Export Plug-In . SVG Version: 2.1.0 Build 151)  -->
  <defs>
    <style>
      .st0 {
        fill: #003e8b;
        stroke: #000;
        stroke-miterlimit: 10;
        stroke-width: 7.4px;
      }

      .st1 {
        fill: #78a3ff;
      }
    </style>
  </defs>
  <path class="st0" d="M854.1,398.2c2.2-8.1,3.3-16.5,3.3-25.1,0-64.1-63.1-116-140.8-116s-66.8,10.5-91.4,27.8c-21-16.7-46.9-26.6-74.8-26.6-68.7,0-124.6,59.5-127.2,133.9h-.4c-74,0-134,49-134,109.5s60,109.5,134,109.5,62.6-9.5,85.8-25.4c30.5,12.4,72.2,20.1,118.1,20.1s81-6.5,110.8-17.3c24.5,13.1,54.9,20.9,87.8,20.9,81.5,0,147.6-47.8,147.6-106.7s-51-94.9-118.7-104.7h0Z"/>
  <polygon class="st1" points="515.7 689.1 486.6 678 481 645.4 504.5 623.9 533.5 635 539.1 667.6 515.7 689.1"/>
  <polygon class="st1" points="602.1 701.2 576.9 712 555.6 693.9 559.5 664.9 584.7 654.1 606.1 672.2 602.1 701.2"/>
  <polygon class="st1" points="549.4 750.7 524.6 779.9 488.7 771.5 477.5 733.8 502.3 704.5 538.2 713 549.4 750.7"/>
  <polygon class="st1" points="660.5 719.3 641.6 725.6 627 711.1 631.3 690.3 650.3 683.9 664.9 698.4 660.5 719.3"/>
  <polygon class="st1" points="641.4 644.4 627.7 655.4 612 648.2 610 629.9 623.7 618.9 639.4 626.1 641.4 644.4"/>
  <polygon class="st1" points="602.1 778.4 581.2 783.6 566.6 766.7 573 744.6 593.9 739.5 608.5 756.4 602.1 778.4"/>
  <polygon class="st1" points="642.6 783.3 623 773.9 620.7 750.9 638.1 737.4 657.7 746.8 659.9 769.7 642.6 783.3"/>
  <polygon class="st1" points="702.1 667.3 682.4 677.4 664.4 664.2 666.1 640.8 685.8 630.7 703.8 644 702.1 667.3"/>
  <polygon class="st1" points="716.7 701.2 711 721.4 691.9 726.2 678.5 710.8 684.1 690.6 703.2 685.8 716.7 701.2"/>
  <polygon class="st1" points="788.5 663.7 758.8 682.9 728.5 664.8 727.9 627.5 757.6 608.3 787.9 626.4 788.5 663.7"/>
  <polygon class="st1" points="772.8 718.1 757.4 732.2 738.3 725 734.6 703.6 750 689.4 769.1 696.7 772.8 718.1"/>
  <polygon class="st1" points="745.8 760.3 731.5 791.9 699 794.3 680.7 765.2 695.1 733.6 727.6 731.2 745.8 760.3"/>
  <polygon class="st1" points="812.1 741 798.5 749.3 785.1 740.9 785.1 724.1 798.7 715.8 812.1 724.2 812.1 741"/>
  <polygon class="st1" points="827.8 693.9 810.8 701.5 796.2 689.4 798.6 669.8 815.6 662.2 830.2 674.3 827.8 693.9"/>
  <polygon class="st1" points="657.2 815.9 641.2 840.8 613.1 838.4 601 811 617 786.1 645.1 788.5 657.2 815.9"/>
  <polygon class="st1" points="564 815.9 553.1 831.4 535.1 829 528.1 811 539 795.5 556.9 797.9 564 815.9"/>
  <polygon class="st1" points="709.9 836.4 694.3 846.2 678.6 836.5 678.5 817.1 694.1 807.3 709.8 816.9 709.9 836.4"/>
  <polygon class="st1" points="789.6 804.1 775.6 820.5 755.4 815.7 749.2 794.5 763.2 778.1 783.4 782.9 789.6 804.1"/>
  <polygon class="st1" points="602.1 863 588.6 881 567.2 877.4 559.5 855.7 573.1 837.7 594.4 841.3 602.1 863"/>
  <polygon class="st1" points="661.6 872.6 649.5 883.2 634.9 877.2 632.5 860.5 644.6 850 659.2 856 661.6 872.6"/>
  <polygon class="st1" points="705.4 877.5 697 883.4 688.1 878.6 687.5 867.8 695.8 861.8 704.8 866.7 705.4 877.5"/>
  <polygon class="st1" points="762.7 867.8 750.1 876.7 736.6 869.5 735.7 853.3 748.3 844.4 761.8 851.6 762.7 867.8"/>
</svg>