<?xml version="1.0" encoding="UTF-8"?>
<svg id="_图层_1" data-name=" 图层 1" xmlns="http://www.w3.org/2000/svg" viewBox="0 0 1280 1024">
  <defs>
    <style>
      .cls-1 {
        fill: #a5a5a5;
      }

      .cls-2 {
        fill: #cdcdcd;
      }

      .cls-3 {
        fill: #8b8b8b;
      }

      .cls-4 {
        fill: #818181;
      }

      .cls-5 {
        fill: #eee;
      }
    </style>
  </defs>
  <path class="cls-4" d="M329.32,594.33c10.15-172.55,169.03-303.55,354.89-292.62,176.81,10.4,314.3,145.52,318.53,307.2,2.04-11.29,3.45-22.79,4.13-34.49,10.19-173.25-135.97-322.78-326.45-333.98-190.48-11.2-353.17,120.16-363.36,293.4-2.12,36.04,2.55,71.05,12.95,104-1.29-14.28-1.55-28.81-.68-43.52h0Z"/>
  <path class="cls-1" d="M331.57,620.25c9.59-163.15,168.03-286.54,353.89-275.62,176.81,10.4,314.71,138.62,319.45,291.55,2.01-10.67,3.37-21.54,4.03-32.6,9.64-163.82-136.97-305.7-327.45-316.9-190.48-11.2-352.72,112.51-362.36,276.32-2,34.08,2.78,67.21,13.28,98.4-1.33-13.51-1.64-27.25-.83-41.16h0Z"/>
  <path class="cls-5" d="M335.55,656.04c9.59-163.15,168.03-286.54,353.89-275.62,176.81,10.4,314.71,138.62,319.45,291.55,2.01-10.67,3.37-21.54,4.03-32.6,9.64-163.82-136.97-305.7-327.45-316.9-190.48-11.2-352.72,112.51-362.36,276.32-2,34.08,2.78,67.21,13.28,98.4-1.33-13.51-1.64-27.25-.83-41.16h0Z"/>
  <path class="cls-2" d="M360.85,674.69c9.01-153.24,157.83-269.14,332.4-258.88,166.07,9.77,295.6,130.2,300.05,273.85,1.88-10.02,3.17-20.23,3.78-30.62,9.05-153.87-128.66-287.13-307.57-297.65-178.93-10.52-331.3,105.68-340.35,259.55-1.89,32.01,2.61,63.12,12.48,92.43-1.25-12.69-1.55-25.6-.78-38.66h0Z"/>
  <path class="cls-3" d="M353.24,695.96c8.53-145.02,159.44-254.12,337.07-243.67,168.99,9.94,301.26,124.49,306.39,260.48,1.87-9.48,3.14-19.14,3.72-28.97,8.56-145.62-132.08-272.34-314.15-283.05-182.06-10.71-336.6,98.66-345.16,244.27-1.78,30.3,2.92,59.77,13.08,87.54-1.32-12.02-1.68-24.24-.95-36.6h0Z"/>
</svg>