<?xml version="1.0" encoding="UTF-8"?>
<svg id="_图层_1" xmlns="http://www.w3.org/2000/svg" version="1.1" viewBox="0 0 1280 1024">
  <!-- Generator: Adobe Illustrator 29.3.1, SVG Export Plug-In . SVG Version: 2.1.0 Build 151)  -->
  <defs>
    <style>
      .st0 {
        fill: #ff4a54;
      }

      .st1 {
        fill: #73ffb6;
      }

      .st2 {
        fill: #fbff73;
      }

      .st3 {
        fill: #17b1ff;
      }

      .st4 {
        fill: #ff9600;
      }
    </style>
  </defs>
  <path class="st0" d="M329.3,594.3c10.1-172.5,169-303.6,354.9-292.6,176.8,10.4,314.3,145.5,318.5,307.2,2-11.3,3.4-22.8,4.1-34.5,10.2-173.2-136-322.8-326.5-334-190.5-11.2-353.2,120.2-363.4,293.4-2.1,36,2.5,71,12.9,104-1.3-14.3-1.6-28.8-.7-43.5h0Z"/>
  <path class="st4" d="M331.6,620.3c9.6-163.1,168-286.5,353.9-275.6,176.8,10.4,314.7,138.6,319.4,291.6,2-10.7,3.4-21.5,4-32.6,9.6-163.8-137-305.7-327.5-316.9-190.5-11.2-352.7,112.5-362.4,276.3-2,34.1,2.8,67.2,13.3,98.4-1.3-13.5-1.6-27.3-.8-41.2h0Z"/>
  <path class="st2" d="M335.5,656c9.6-163.1,168-286.5,353.9-275.6,176.8,10.4,314.7,138.6,319.4,291.6,2-10.7,3.4-21.5,4-32.6,9.6-163.8-137-305.7-327.5-316.9-190.5-11.2-352.7,112.5-362.4,276.3-2,34.1,2.8,67.2,13.3,98.4-1.3-13.5-1.6-27.3-.8-41.2h0Z"/>
  <path class="st1" d="M360.9,674.7c9-153.2,157.8-269.1,332.4-258.9,166.1,9.8,295.6,130.2,300,273.8,1.9-10,3.2-20.2,3.8-30.6,9.1-153.9-128.7-287.1-307.6-297.7-178.9-10.5-331.3,105.7-340.3,259.5-1.9,32,2.6,63.1,12.5,92.4-1.2-12.7-1.5-25.6-.8-38.7h0Z"/>
  <path class="st3" d="M353.2,696c8.5-145,159.4-254.1,337.1-243.7,169,9.9,301.3,124.5,306.4,260.5,1.9-9.5,3.1-19.1,3.7-29,8.6-145.6-132.1-272.3-314.1-283.1-182.1-10.7-336.6,98.7-345.2,244.3-1.8,30.3,2.9,59.8,13.1,87.5-1.3-12-1.7-24.2-1-36.6h0Z"/>
</svg>