<?xml version="1.0" encoding="utf-8"?>
<!-- Generator: Adobe Illustrator 28.3.0, SVG Export Plug-In . SVG Version: 6.00 Build 0)  -->
<svg version="1.1" id="_图层_1" xmlns="http://www.w3.org/2000/svg" xmlns:xlink="http://www.w3.org/1999/xlink" x="0px" y="0px"
	 viewBox="0 0 730.8 712.2" style="enable-background:new 0 0 730.8 712.2;" xml:space="preserve">
<style type="text/css">
	.st0{fill:#E1E1E1;}
	.st1{fill:#F8F8F8;stroke:#000000;stroke-width:3.9602;stroke-miterlimit:10;}
	.st2{fill:#E1E1E1;stroke:#5F5F5F;stroke-width:0.495;stroke-miterlimit:10;}
	.st3{fill:#E1E1E1;stroke:#000000;stroke-width:0.3727;stroke-miterlimit:10;}
	.st4{fill:url(#SVGID_1_);stroke:#000000;stroke-width:0.3727;stroke-miterlimit:10;}
	
		.st5{fill:url(#SVGID_00000165939471312538089510000001142480681512569262_);stroke:#000000;stroke-width:0.3727;stroke-miterlimit:10;}
	
		.st6{fill:url(#SVGID_00000157290270105362073830000010775250602721388441_);stroke:#000000;stroke-width:0.3727;stroke-miterlimit:10;}
</style>
<g>
	<g>
		<path class="st0" d="M509.8,331.6c-0.6-7.6-4.4-15.7-8.4-22.1c-12.9-21-34.7-38.5-62-47.3c-24.6-8.2-54.2-8.8-78.1,1.1
			c-8.3,3.2-15.9,7.9-22,13.5c-41.4-2.4-88.6,18.7-93.6,58.3c-24.9,10.6-39.8,24.1-39.6,38.9c0.3,33.5,78.6,60.3,175,59.7
			s174.3-28.1,174.1-61.7C554.9,356.3,537.8,342.2,509.8,331.6L509.8,331.6L509.8,331.6z"/>
		<path d="M378.2,435.6c-45.8,0-88.8-6.1-121.4-17.2c-33.9-11.5-52.6-27.4-52.8-44.5c-0.1-15,13.7-28.9,39.8-40.2
			c2.7-18.4,14.8-34.4,34.1-45.3c17.4-9.8,39.4-14.8,60.7-13.7c6.3-5.6,13.9-10.1,22-13.3c23.2-9.4,52.9-9.9,79.5-1.1
			c26.9,8.8,49.3,25.8,63,48.1c3.4,5.5,7.5,13.7,8.5,21.7c29.1,11.3,45.2,26.1,45.3,41.8c0.1,7.4-3.4,14.6-10.1,21.4
			c-24.5,24.8-91.2,41.8-165.9,42.2C380,435.6,379.1,435.6,378.2,435.6L378.2,435.6L378.2,435.6z M332.7,278.5
			c-18.8,0-37.7,4.7-52.9,13.3c-13.1,7.4-29.3,21-32.2,43.5l-0.2,1.2l-1.1,0.5c-24.9,10.7-38.6,23.8-38.5,37c0.1,7.6,4.5,15,13.2,22
			c8.7,7,21.1,13.4,36.9,18.8c32.8,11.3,76.5,17.2,122.8,17c73.8-0.4,139.3-16.9,163.2-41.1c6-6.1,8.9-12.3,8.9-18.6
			c-0.1-14.1-15.7-27.9-44-38.6l-1.2-0.5l-0.1-1.3c-0.6-7.7-4.7-15.8-8.1-21.3c-13.3-21.5-34.8-38-60.9-46.5
			c-25.7-8.5-54.4-8.2-76.8,1c-8.1,3.1-15.5,7.6-21.5,13.1l-0.6,0.6l-0.9-0.1C337,278.5,334.8,278.4,332.7,278.5L332.7,278.5
			L332.7,278.5z"/>
	</g>
	<path class="st1" d="M225.6,159.2c9.3,4.5,16.5,12.6,19.8,23.5c7.2,23.8-7.1,51.8-32,62.6c-24.9,10.9-51,0.4-58.2-23.3
		c-1.5-5.1-2.1-10.4-1.7-15.6c-0.7,3.4-1,6.8-1,10.4c0.2,31.7,29.2,57.3,65,57c35.7-0.3,64.5-26.2,64.3-57.9
		C281.5,186.7,257.2,162.9,225.6,159.2L225.6,159.2L225.6,159.2z"/>
	<path class="st2" d="M315.7,438.6c-3.2,0.4-8.9,1.3-14.5,4.4c-4,2.2-10,5.6-9.5,10.4c0.4,3.5,4,6.8,8.9,7.9
		c0.3,0.1,5.8,1.2,10.4-1.3c5.7-3,5.8-9.2,5.9-13.7C316.9,442.9,316.2,440.2,315.7,438.6L315.7,438.6L315.7,438.6z"/>
	<path class="st3" d="M356.9,473.7c-3.2,0.4-8.9,1.3-14.5,4.4c-4,2.2-10,5.6-9.5,10.4c0.4,3.5,4,6.8,8.9,7.9
		c0.3,0.1,5.8,1.2,10.4-1.3c5.7-3,5.8-9.2,5.9-13.7C358.1,478.1,357.4,475.4,356.9,473.7L356.9,473.7L356.9,473.7z"/>
	
		<linearGradient id="SVGID_1_" gradientUnits="userSpaceOnUse" x1="423.9876" y1="495.5907" x2="449.2197" y2="495.5907" gradientTransform="matrix(1 -6.457673e-03 -6.457673e-03 -1 3.6312 951.9977)">
		<stop  offset="0" style="stop-color:#FFFFFF"/>
		<stop  offset="1" style="stop-color:#E1E1E1"/>
	</linearGradient>
	<path class="st4" d="M448.5,442c-3.2,0.4-8.9,1.3-14.5,4.4c-4,2.2-10,5.6-9.5,10.4c0.4,3.5,4,6.8,8.9,7.9c0.3,0.1,5.8,1.2,10.4-1.3
		c5.7-3,5.8-9.2,5.9-13.7C449.7,446.5,449,443.8,448.5,442L448.5,442L448.5,442z"/>
	
		<linearGradient id="SVGID_00000111167638790770374960000007228167281741099151_" gradientUnits="userSpaceOnUse" x1="385.6818" y1="463.0336" x2="410.9138" y2="463.0336" gradientTransform="matrix(1 -6.457673e-03 -6.457673e-03 -1 3.6312 951.9977)">
		<stop  offset="0" style="stop-color:#FFFFFF"/>
		<stop  offset="1" style="stop-color:#E1E1E1"/>
	</linearGradient>
	
		<path style="fill:url(#SVGID_00000111167638790770374960000007228167281741099151_);stroke:#000000;stroke-width:0.3727;stroke-miterlimit:10;" d="
		M410.4,474.8c-3.2,0.4-8.9,1.3-14.5,4.4c-4,2.2-10,5.6-9.5,10.4c0.4,3.5,4,6.8,8.9,7.9c0.3,0.1,5.8,1.2,10.4-1.3
		c5.7-3,5.8-9.2,5.9-13.7C411.6,479.2,410.9,476.6,410.4,474.8L410.4,474.8L410.4,474.8z"/>
	
		<linearGradient id="SVGID_00000096777506980639673620000004274158695145320075_" gradientUnits="userSpaceOnUse" x1="363.383" y1="495.8859" x2="388.6149" y2="495.8859" gradientTransform="matrix(1 -6.457673e-03 -6.457673e-03 -1 3.6312 951.9977)">
		<stop  offset="0" style="stop-color:#FFFFFF"/>
		<stop  offset="1" style="stop-color:#E1E1E1"/>
	</linearGradient>
	
		<path style="fill:url(#SVGID_00000096777506980639673620000004274158695145320075_);stroke:#000000;stroke-width:0.3727;stroke-miterlimit:10;" d="
		M387.9,442.1c-3.2,0.4-8.9,1.3-14.5,4.4c-4,2.2-10,5.6-9.5,10.4c0.4,3.5,4,6.8,8.9,7.9c0.3,0.1,5.8,1.2,10.4-1.3
		c5.7-3,5.8-9.2,5.9-13.7C389.1,446.6,388.5,443.9,387.9,442.1L387.9,442.1L387.9,442.1z"/>
	<path class="st3" d="M328.5,530c-3.2,0.4-8.9,1.3-14.5,4.4c-4,2.2-10,5.6-9.5,10.4c0.4,3.5,4,6.8,8.9,7.9c0.3,0.1,5.8,1.2,10.4-1.3
		c5.7-3,5.8-9.2,5.9-13.7C329.7,534.4,329,531.7,328.5,530L328.5,530L328.5,530z"/>
	<path class="st3" d="M310.7,490c-3.2,0.4-8.9,1.3-14.5,4.4c-4,2.2-10,5.6-9.5,10.4c0.4,3.5,4,6.8,8.9,7.9c0.3,0.1,5.8,1.2,10.4-1.3
		c5.7-3,5.8-9.2,5.9-13.7C311.8,494.4,311.1,491.8,310.7,490L310.7,490L310.7,490z"/>
	<path class="st3" d="M368.3,508c-3.2,0.4-8.9,1.3-14.5,4.4c-4,2.2-10,5.6-9.5,10.4c0.4,3.5,4,6.8,8.9,7.9c0.3,0.1,5.8,1.2,10.4-1.3
		c5.7-3,5.8-9.2,5.9-13.7C369.4,512.5,368.8,509.8,368.3,508L368.3,508L368.3,508z"/>
</g>
</svg>
