<?xml version="1.0" encoding="utf-8"?>
<!-- Generator: Adobe Illustrator 28.3.0, SVG Export Plug-In . SVG Version: 6.00 Build 0)  -->
<svg version="1.1" id="_图层_1" xmlns="http://www.w3.org/2000/svg" xmlns:xlink="http://www.w3.org/1999/xlink" x="0px" y="0px"
	 viewBox="0 0 730.8 712.2" style="enable-background:new 0 0 730.8 712.2;" xml:space="preserve">
<style type="text/css">
	.st0{fill:#D0E4FF;}
	.st1{fill:#FFFEC4;stroke:#000000;stroke-width:3.97;stroke-miterlimit:10;}
	.st2{fill:#D0E4FF;stroke:#0072FF;stroke-width:0.5;stroke-miterlimit:10;}
	.st3{fill:#D0E4FF;stroke:#000000;stroke-width:0.37;stroke-miterlimit:10;}
	.st4{fill:url(#SVGID_1_);stroke:#000000;stroke-width:0.37;stroke-miterlimit:10;}
	
		.st5{fill:url(#SVGID_00000049184366070894134240000007385946727657843362_);stroke:#000000;stroke-width:0.37;stroke-miterlimit:10;}
	
		.st6{fill:url(#SVGID_00000129901484420959574620000012394653943901723835_);stroke:#000000;stroke-width:0.37;stroke-miterlimit:10;}
	.st7{fill:#E1E1E1;}
	.st8{fill:#F8F8F8;stroke:#000000;stroke-width:4.1166;stroke-miterlimit:10;}
	.st9{fill:#E1E1E1;stroke:#5F5F5F;stroke-width:0.5146;stroke-miterlimit:10;}
	.st10{fill:#E1E1E1;stroke:#000000;stroke-width:0.3874;stroke-miterlimit:10;}
	
		.st11{fill:url(#SVGID_00000093174850931660251260000007272888644666864549_);stroke:#000000;stroke-width:0.3874;stroke-miterlimit:10;}
	
		.st12{fill:url(#SVGID_00000036958477934288099530000000962264619776839588_);stroke:#000000;stroke-width:0.3874;stroke-miterlimit:10;}
	
		.st13{fill:url(#SVGID_00000069360243443989260020000006788104118335603336_);stroke:#000000;stroke-width:0.3874;stroke-miterlimit:10;}
</style>
<g>
	<path class="st0" d="M514.3,331.6c-0.6-7.6-4.4-15.8-8.4-22.2c-13-21.1-34.8-38.6-62.2-47.5c-24.8-8.2-54.3-8.8-78.4,1
		c-8.3,3.2-16,7.9-22.2,13.5c-41.6-2.5-88.9,18.8-94,58.5c-25,10.7-39.9,24.3-39.8,39c0.2,33.6,78.9,60.5,175.6,60
		s175-28.2,174.7-61.9C559.5,356.4,542.4,342.2,514.3,331.6L514.3,331.6L514.3,331.6z"/>
	<path d="M382.2,436c-46,0-89.2-6.1-121.9-17.3c-34-11.6-52.9-27.5-53-44.7c-0.1-15,13.7-29,40-40.4c2.8-18.5,14.8-34.6,34.2-45.5
		c17.5-9.8,39.6-14.8,61-13.7c6.3-5.6,13.9-10.2,22.2-13.3c23.3-9.5,53.1-9.9,79.8-1.1c27,8.8,49.5,25.9,63.3,48.3
		c3.4,5.5,7.6,13.7,8.5,21.8c29.2,11.3,45.4,26.2,45.5,42c0.1,7.4-3.3,14.6-10.1,21.5c-24.6,24.9-91.6,42-166.6,42.4L382.2,436
		L382.2,436L382.2,436z M336.5,278.2c-18.8,0-37.8,4.8-53.1,13.4c-13.1,7.4-29.4,21-32.3,43.6l-0.1,1.1l-1.1,0.5
		c-25,10.7-38.7,23.9-38.6,37.2c0.1,7.6,4.5,15,13.2,22.1c8.7,7.1,21.2,13.4,37.1,18.8c33,11.3,76.8,17.3,123.4,17.1
		c74-0.4,139.9-17,163.8-41.2c6-6.1,9-12.3,9-18.7c-0.1-14.2-15.8-28-44.1-38.7l-1.2-0.5l-0.1-1.3c-0.6-7.8-4.7-15.9-8.1-21.3
		c-13.3-21.6-35-38.2-61.1-46.6c-25.8-8.5-54.6-8.2-77.1,1c-8.1,3.1-15.5,7.6-21.6,13.1l-0.6,0.6l-0.8,0
		C340.8,278.3,338.7,278.2,336.5,278.2L336.5,278.2L336.5,278.2L336.5,278.2z"/>
</g>
<path class="st1" d="M229.1,158.5c9.3,4.5,16.6,12.6,19.9,23.6c7.3,23.8-7.2,51.9-32.2,62.8c-25,10.9-51.2,0.4-58.4-23.4
	c-1.6-5.1-2.1-10.4-1.8-15.7c-0.7,3.4-1,6.8-1,10.4c0.2,31.9,29.4,57.5,65.2,57.3s64.7-26.3,64.5-58.2
	C285.2,186.1,260.7,162.2,229.1,158.5L229.1,158.5L229.1,158.5z"/>
<path class="st2" d="M319.5,438.9c-3.2,0.4-9,1.3-14.6,4.4c-4,2.3-10.1,5.6-9.6,10.4c0.4,3.5,4.1,6.8,8.9,7.9
	c0.2,0.1,5.8,1.2,10.4-1.3c5.7-3,5.8-9.2,5.9-13.7C320.7,443.3,320,440.6,319.5,438.9L319.5,438.9L319.5,438.9z"/>
<path class="st3" d="M360.8,474.2c-3.2,0.4-9,1.3-14.6,4.4c-4,2.3-10.1,5.6-9.6,10.4c0.4,3.5,4.1,6.8,8.9,7.9
	c0.2,0.1,5.8,1.2,10.4-1.3c5.7-3,5.8-9.2,5.9-13.7C362,478.6,361.3,475.9,360.8,474.2L360.8,474.2L360.8,474.2z"/>
<linearGradient id="SVGID_1_" gradientUnits="userSpaceOnUse" x1="426.5084" y1="-14.2423" x2="451.8297" y2="-14.2423" gradientTransform="matrix(1 -6.457673e-03 -6.457673e-03 -1 1.9839 442.5953)">
	<stop  offset="0" style="stop-color:#FFFFFF"/>
	<stop  offset="1" style="stop-color:#D0E4FF"/>
</linearGradient>
<path class="st4" d="M452.7,442.4c-3.2,0.4-9,1.3-14.6,4.4c-4,2.3-10.1,5.6-9.6,10.4c0.4,3.5,4.1,6.8,8.9,7.9
	c0.2,0.1,5.8,1.2,10.4-1.3c5.7-3,5.8-9.2,5.9-13.7C453.9,446.9,453.3,444.2,452.7,442.4L452.7,442.4L452.7,442.4z"/>
<linearGradient id="SVGID_00000072241284497032795200000013916323190760514481_" gradientUnits="userSpaceOnUse" x1="388.0667" y1="-46.8947" x2="413.388" y2="-46.8947" gradientTransform="matrix(1 -6.457673e-03 -6.457673e-03 -1 1.9839 442.5953)">
	<stop  offset="0" style="stop-color:#FFFFFF"/>
	<stop  offset="1" style="stop-color:#D0E4FF"/>
</linearGradient>
<path style="fill:url(#SVGID_00000072241284497032795200000013916323190760514481_);stroke:#000000;stroke-width:0.37;stroke-miterlimit:10;" d="
	M414.5,475.3c-3.2,0.4-9,1.3-14.6,4.4c-4,2.3-10.1,5.6-9.6,10.4c0.4,3.5,4.1,6.8,8.9,7.9c0.2,0.1,5.8,1.2,10.4-1.3
	c5.7-3,5.8-9.2,5.9-13.7C415.7,479.8,415.1,477.1,414.5,475.3L414.5,475.3L414.5,475.3z"/>
<linearGradient id="SVGID_00000156550018647200162250000004664649107905235864_" gradientUnits="userSpaceOnUse" x1="365.709" y1="-13.9497" x2="391.0303" y2="-13.9497" gradientTransform="matrix(1 -6.457673e-03 -6.457673e-03 -1 1.9839 442.5953)">
	<stop  offset="0" style="stop-color:#FFFFFF"/>
	<stop  offset="1" style="stop-color:#D0E4FF"/>
</linearGradient>
<path style="fill:url(#SVGID_00000156550018647200162250000004664649107905235864_);stroke:#000000;stroke-width:0.37;stroke-miterlimit:10;" d="
	M391.9,442.5c-3.2,0.4-9,1.3-14.6,4.4c-4,2.3-10.1,5.6-9.6,10.4c0.4,3.5,4.1,6.8,8.9,7.9c0.2,0.1,5.8,1.2,10.4-1.3
	c5.7-3,5.8-9.2,5.9-13.7C393.1,447,392.5,444.3,391.9,442.5L391.9,442.5L391.9,442.5z"/>
<path class="st3" d="M332.3,530.7c-3.2,0.3-9,1.3-14.6,4.4c-4,2.3-10.1,5.6-9.6,10.4c0.4,3.5,4.1,6.8,8.9,7.9
	c0.2,0.1,5.8,1.2,10.4-1.3c5.7-3,5.8-9.2,5.9-13.7C333.5,535.1,332.9,532.4,332.3,530.7L332.3,530.7L332.3,530.7z"/>
<path class="st3" d="M314.4,490.6c-3.2,0.4-9,1.3-14.6,4.4c-4,2.3-10.1,5.6-9.6,10.4c0.4,3.5,4.1,6.8,8.9,7.9
	c0.2,0.1,5.8,1.2,10.4-1.3c5.7-3,5.8-9.2,5.9-13.7C315.6,495,314.9,492.3,314.4,490.6L314.4,490.6L314.4,490.6z"/>
<path class="st3" d="M372.2,508.7c-3.2,0.3-9,1.3-14.6,4.4c-4,2.3-10.1,5.6-9.6,10.4c0.4,3.5,4.1,6.8,8.9,7.9
	c0.2,0.1,5.8,1.2,10.4-1.3c5.7-3,5.8-9.2,5.9-13.7C373.4,513.1,372.7,510.4,372.2,508.7L372.2,508.7L372.2,508.7z"/>
<g>
	<g>
		<path class="st7" d="M692,913.2c-0.6-7.9-4.6-16.3-8.7-23c-13.4-21.8-36.1-40-64.4-49.2c-25.6-8.5-56.3-9.1-81.2,1.1
			c-8.6,3.3-16.5,8.2-22.9,14c-43-2.5-92.1,19.4-97.3,60.6c-25.9,11-41.4,25.1-41.2,40.4c0.3,34.8,81.7,62.7,181.9,62.1
			s181.2-29.2,181-64.1C738.9,938.9,721.1,924.2,692,913.2L692,913.2L692,913.2z"/>
		<path d="M555.2,1021.3c-47.6,0-92.3-6.3-126.2-17.9c-35.2-12-54.7-28.5-54.9-46.3c-0.1-15.6,14.2-30,41.4-41.8
			c2.8-19.1,15.4-35.8,35.4-47.1c18.1-10.2,41-15.4,63.1-14.2c6.5-5.8,14.4-10.5,22.9-13.8c24.1-9.8,55-10.3,82.6-1.1
			c28,9.1,51.2,26.8,65.5,50c3.5,5.7,7.8,14.2,8.8,22.6c30.3,11.7,47,27.1,47.1,43.4c0.1,7.7-3.5,15.2-10.5,22.2
			c-25.5,25.8-94.8,43.5-172.5,43.9C557.1,1021.3,556.2,1021.3,555.2,1021.3L555.2,1021.3L555.2,1021.3z M507.9,857.9
			c-19.5,0-39.2,4.9-55,13.8c-13.6,7.7-30.5,21.8-33.5,45.2l-0.2,1.2l-1.1,0.5c-25.9,11.1-40.1,24.7-40,38.5
			c0.1,7.9,4.7,15.6,13.7,22.9c9,7.3,21.9,13.9,38.4,19.5c34.1,11.7,79.5,17.9,127.7,17.7c76.7-0.4,144.8-17.6,169.6-42.7
			c6.2-6.3,9.3-12.8,9.3-19.3c-0.1-14.7-16.3-29-45.7-40.1l-1.2-0.5l-0.1-1.3c-0.6-8-4.9-16.4-8.4-22.1
			c-13.8-22.4-36.2-39.5-63.3-48.3c-26.7-8.8-56.5-8.5-79.8,1c-8.4,3.2-16.1,7.9-22.3,13.6l-0.6,0.6l-0.9-0.1
			C512.4,858,510.2,857.9,507.9,857.9L507.9,857.9L507.9,857.9z"/>
	</g>
	<path class="st8" d="M396.7,733.9c9.7,4.7,17.2,13.1,20.6,24.4c7.5,24.7-7.4,53.8-33.3,65.1c-25.9,11.3-53,0.4-60.5-24.2
		c-1.6-5.3-2.2-10.8-1.8-16.2c-0.7,3.5-1,7.1-1,10.8c0.2,33,30.4,59.6,67.6,59.3s67-27.2,66.8-60.2
		C454.8,762.5,429.4,737.7,396.7,733.9L396.7,733.9L396.7,733.9z"/>
	<path class="st9" d="M490.3,1024.3c-3.3,0.4-9.3,1.4-15.1,4.6c-4.2,2.3-10.4,5.8-9.9,10.8c0.4,3.6,4.2,7.1,9.2,8.2
		c0.3,0.1,6,1.2,10.8-1.3c5.9-3.1,6-9.6,6.1-14.2C491.5,1028.9,490.9,1026.1,490.3,1024.3L490.3,1024.3L490.3,1024.3z"/>
	<path class="st10" d="M533.1,1060.9c-3.3,0.4-9.3,1.4-15.1,4.6c-4.2,2.3-10.4,5.8-9.9,10.8c0.4,3.6,4.2,7.1,9.2,8.2
		c0.3,0.1,6,1.2,10.8-1.3c5.9-3.1,6-9.6,6.1-14.2C534.3,1065.4,533.7,1062.7,533.1,1060.9L533.1,1060.9L533.1,1060.9z"/>
	
		<linearGradient id="SVGID_00000152227258575956752090000011135057235120035760_" gradientUnits="userSpaceOnUse" x1="599.319" y1="806.3066" x2="625.5475" y2="806.3066" gradientTransform="matrix(1 -6.457673e-03 6.457673e-03 1 -1.2314 237.6167)">
		<stop  offset="0" style="stop-color:#FFFFFF"/>
		<stop  offset="1" style="stop-color:#E1E1E1"/>
	</linearGradient>
	
		<path style="fill:url(#SVGID_00000152227258575956752090000011135057235120035760_);stroke:#000000;stroke-width:0.3874;stroke-miterlimit:10;" d="
		M628.3,1028c-3.3,0.4-9.3,1.4-15.1,4.6c-4.2,2.3-10.4,5.8-9.9,10.8c0.4,3.6,4.2,7.1,9.2,8.2c0.3,0.1,6,1.2,10.8-1.3
		c5.9-3.1,6-9.6,6.1-14.2C629.5,1032.6,628.9,1029.8,628.3,1028L628.3,1028L628.3,1028z"/>
	
		<linearGradient id="SVGID_00000114767717456179349290000012633223430423904652_" gradientUnits="userSpaceOnUse" x1="559.5126" y1="840.1161" x2="585.741" y2="840.1161" gradientTransform="matrix(1 -6.457673e-03 6.457673e-03 1 -1.2314 237.6167)">
		<stop  offset="0" style="stop-color:#FFFFFF"/>
		<stop  offset="1" style="stop-color:#E1E1E1"/>
	</linearGradient>
	
		<path style="fill:url(#SVGID_00000114767717456179349290000012633223430423904652_);stroke:#000000;stroke-width:0.3874;stroke-miterlimit:10;" d="
		M588.7,1062.1c-3.3,0.4-9.3,1.4-15.1,4.6c-4.2,2.3-10.4,5.8-9.9,10.8c0.4,3.6,4.2,7.1,9.2,8.2c0.3,0.1,6,1.2,10.8-1.3
		c5.9-3.1,6-9.6,6.1-14.2C590,1066.6,589.3,1063.8,588.7,1062.1L588.7,1062.1L588.7,1062.1z"/>
	
		<linearGradient id="SVGID_00000153701365964873500410000011547665216617355682_" gradientUnits="userSpaceOnUse" x1="536.3569" y1="806.0099" x2="562.5853" y2="806.0099" gradientTransform="matrix(1 -6.457673e-03 6.457673e-03 1 -1.2314 237.6167)">
		<stop  offset="0" style="stop-color:#FFFFFF"/>
		<stop  offset="1" style="stop-color:#E1E1E1"/>
	</linearGradient>
	
		<path style="fill:url(#SVGID_00000153701365964873500410000011547665216617355682_);stroke:#000000;stroke-width:0.3874;stroke-miterlimit:10;" d="
		M565.3,1028.1c-3.3,0.4-9.3,1.4-15.1,4.6c-4.2,2.3-10.4,5.8-9.9,10.8c0.4,3.6,4.2,7.1,9.2,8.2c0.3,0.1,6,1.2,10.8-1.3
		c5.9-3.1,6-9.6,6.1-14.2C566.6,1032.7,565.9,1029.9,565.3,1028.1L565.3,1028.1L565.3,1028.1z"/>
	<path class="st10" d="M503.6,1119.4c-3.3,0.4-9.3,1.4-15.1,4.6c-4.2,2.3-10.4,5.8-9.9,10.8c0.4,3.6,4.2,7.1,9.2,8.2
		c0.3,0.1,6,1.2,10.8-1.3c5.9-3.1,6-9.6,6.1-14.2C504.8,1123.9,504.2,1121.2,503.6,1119.4L503.6,1119.4L503.6,1119.4z"/>
	<path class="st10" d="M485,1077.9c-3.3,0.4-9.3,1.4-15.1,4.6c-4.2,2.3-10.4,5.8-9.9,10.8c0.4,3.6,4.2,7.1,9.2,8.2
		c0.3,0.1,6,1.2,10.8-1.3c5.9-3.1,6-9.6,6.1-14.2C486.3,1082.4,485.6,1079.6,485,1077.9L485,1077.9L485,1077.9z"/>
	<path class="st10" d="M544.9,1096.6c-3.3,0.4-9.3,1.4-15.1,4.6c-4.2,2.3-10.4,5.8-9.9,10.8c0.4,3.6,4.2,7.1,9.2,8.2
		c0.3,0.1,6,1.2,10.8-1.3c5.9-3.1,6-9.6,6.1-14.2C546.1,1101.2,545.5,1098.4,544.9,1096.6L544.9,1096.6L544.9,1096.6z"/>
</g>
</svg>
