<?xml version="1.0" encoding="UTF-8"?>
<svg id="_图层_1" data-name="图层 1" xmlns="http://www.w3.org/2000/svg" viewBox="0 0 1280 1024">
  <defs>
    <style>
      .cls-1 {
        fill: #e6e6e6;
      }

      .cls-2, .cls-3 {
        stroke: #000;
        stroke-miterlimit: 10;
        stroke-width: 8px;
      }

      .cls-2, .cls-4 {
        fill: #b3b3b3;
      }

      .cls-5, .cls-3 {
        fill: #ccc;
      }
    </style>
  </defs>
  <ellipse class="cls-3" cx="404.72" cy="420.37" rx="135.02" ry="93.26"/>
  <path class="cls-2" d="M765.85,246.37c-16.83-70.11-93.86-113.25-172.05-96.37-61.12,13.2-104.85,59.16-113,112.09-57.89,4.63-103.22,46.61-103.22,97.74,0,54.22,50.97,98.17,113.85,98.17,43.98,0,82.13-21.5,101.09-52.98,19.87,3.6,41,3.45,62.22-1.14,78.19-16.89,127.93-87.41,111.1-157.52Z"/>
  <path class="cls-3" d="M843.95,312.89c-16.24-30.15-62.96-51.94-118.08-51.94s-103.69,22.66-119.01,53.75c-97.12,17.63-164.23,55.36-164.23,99.06,0,60.58,128.96,109.69,288.03,109.69s288.03-49.11,288.03-109.69c0-45.26-71.99-84.11-174.74-100.87Z"/>
  <path class="cls-4" d="M467.16,610.29c-5.96,0-5.97,8.78,0,8.78s5.97-8.78,0-8.78Z"/>
  <path class="cls-4" d="M505.64,571.68c-5.96,0-5.97,8.78,0,8.78s5.97-8.78,0-8.78Z"/>
  <path class="cls-4" d="M461.58,571.68c-5.96,0-5.97,8.78,0,8.78s5.97-8.78,0-8.78Z"/>
  <path class="cls-4" d="M537.98,604.85c-2.56-3.08-5.17-7.3-8.5-10.16,1.27-2.03,2.71-3.94,4.39-5.76,3.91-4.24-2.62-10.48-6.55-6.21-2.55,2.76-4.76,5.68-6.62,8.86h-6.02c.2-.14.4-.29.61-.43,4.8-3.26.18-10.88-4.67-7.59-3.69,2.51-7.23,5.17-10.62,8.01h-7.14c2.08-1.2,4.22-2.3,6.42-3.3,5.37-2.46.67-10.04-4.67-7.59-1.12.51-2.21,1.06-3.29,1.63,0-2.04,0-4.08.01-6.12,2.83-3.34,6.09-6.31,9.77-8.82,4.79-3.28.17-10.9-4.67-7.59-1.78,1.22-3.46,2.51-5.07,3.85,0-.62,0-1.23,0-1.85,0-5.65-9.25-5.66-9.26,0v4.54c-2.1-1.95-4.42-3.65-6.86-5.2-4.96-3.16-9.6,4.44-4.67,7.59,2.35,1.5,4.46,3.2,6.37,5.19,1.78,1.85,3.03,4.16,5.11,5.71,0,0,.01,0,.02.01v4.88c-1.99-1.7-4.06-3.3-6.23-4.83-4.78-3.39-9.4,4.24-4.67,7.59,1.9,1.34,3.68,2.8,5.39,4.33h-3.09c-2.79-2.58-5.51-5.22-8.15-7.95-4.05-4.17-10.58,2.06-6.55,6.21.57.59,1.16,1.15,1.73,1.73h-2.65c-1.18-1.44-3.02-2.55-4.4-3.61-3.07-2.36-6.21-4.63-9.41-6.83-4.83-3.33-9.46,4.29-4.67,7.59,2.08,1.43,4.14,2.88,6.15,4.4.78.58,1.97,1.28,3.02,2.01-.04.22-.06.45-.07.67-.96,1.24-2.1,2.49-2.8,3.5-1.56,2.23-3.11,4.46-4.67,6.69-3.3,4.73,4.72,9.13,8,4.43,2.18-3.12,4.36-6.25,6.54-9.37.16-.23.33-.46.51-.7h4.57c-.55.68-1.09,1.37-1.61,2.08-3.42,4.65,4.61,9.04,8,4.43,1.75-2.37,3.73-4.52,5.9-6.52h9.12c-.02,2.07-.05,4.14-.06,6.22-.19.19-.37.39-.54.61-2.1,2.73-3.88,5.64-5.37,8.7-1.52,1.56-2,4.01.07,5.93l.24.22c1.56,1.45,4.56,1.72,6.3.34.17,1.34.38,2.67.63,3.99-.62.24-1.24.5-1.85.77-.67-.12-1.37-.13-2.06.05-2.44.64-3.87,3.1-3.23,5.4.18.67.46,1.3.85,1.89,1.35,2.04,4.09,2.76,6.34,1.58,1.49-.79,2.94-1.41,4.48-1.95.3.05.61.06.92.05,1.48.77,2.9,1.62,4.25,2.58,1.89,1.35,3.78,2.72,6.3,2.47,2.49-.25,4.63-1.84,4.63-4.39,0-2.16-2.09-4.59-4.56-4.39-.08-.06-.17-.14-.28-.24-.67-.58-1.49-1.1-2.23-1.59-1.32-.88-2.7-1.66-4.13-2.38-.01,0-.02,0-.03-.01-.55-2.45-.91-4.93-1.15-7.44,1.01.93,2.01,1.86,3,2.81,4.19,4.03,10.74-2.18,6.55-6.21-2.14-2.06-4.34-4.07-6.61-6.01-1.08-.92-2.16-1.88-3.32-2.7.02-2.1.07-4.2.1-6.29h4.38c.6.84,1.49,1.54,2.56,1.93.34.12,2.12,2.7,2.68,3.39,1.25,1.55,2.5,3.1,3.76,4.65.73.91,1.65,1.44,2.62,1.68-4.72,1.1-4.33,8.65,1.2,8.65s5.93-7.43,1.31-8.62c2.88-.63,5.11-3.36,2.87-6.14-1.36-1.69-2.69-3.66-4.15-5.54h13.52c3.79,2.17,6.85,7.58,9.45,10.7,3.68,4.44,10.2-1.82,6.55-6.21Z"/>
  <path class="cls-4" d="M474.14,542.55c-5.96,0-5.97,8.78,0,8.78s5.97-8.78,0-8.78Z"/>
  <path class="cls-4" d="M521.21,565.87c-5.96,0-5.97,8.78,0,8.78s5.97-8.78,0-8.78Z"/>
  <path class="cls-4" d="M525.4,620.44c-5.96,0-5.97,8.78,0,8.78s5.97-8.78,0-8.78Z"/>
  <path class="cls-4" d="M455.84,626.89c-5.96,0-5.97,8.78,0,8.78s5.97-8.78,0-8.78Z"/>
  <path class="cls-4" d="M443.81,567.85c-5.96,0-5.97,8.78,0,8.78s5.97-8.78,0-8.78Z"/>
  <path class="cls-4" d="M499.25,544.54c-5.96,0-5.97,8.78,0,8.78s5.97-8.78,0-8.78Z"/>
  <path class="cls-4" d="M608.61,639.18c-5.96,0-5.97,8.78,0,8.78s5.97-8.78,0-8.78Z"/>
  <path class="cls-4" d="M647.09,600.57c-5.96,0-5.97,8.78,0,8.78s5.97-8.78,0-8.78Z"/>
  <path class="cls-4" d="M603.04,600.57c-5.96,0-5.97,8.78,0,8.78s5.97-8.78,0-8.78Z"/>
  <path class="cls-4" d="M679.43,633.74c-2.56-3.08-5.17-7.3-8.5-10.16,1.27-2.03,2.71-3.94,4.39-5.76,3.91-4.24-2.62-10.48-6.55-6.21-2.55,2.76-4.76,5.68-6.62,8.86h-6.02c.2-.14.4-.29.61-.43,4.8-3.26.18-10.88-4.67-7.59-3.69,2.51-7.23,5.17-10.62,8.01h-7.14c2.08-1.2,4.22-2.3,6.42-3.3,5.37-2.46.67-10.04-4.67-7.59-1.12.51-2.21,1.06-3.29,1.63,0-2.04,0-4.08.01-6.12,2.83-3.34,6.09-6.31,9.77-8.82,4.79-3.28.17-10.9-4.67-7.59-1.78,1.22-3.46,2.51-5.07,3.85,0-.62,0-1.23,0-1.85,0-5.65-9.25-5.66-9.26,0v4.54c-2.1-1.95-4.42-3.65-6.86-5.2-4.96-3.16-9.6,4.44-4.67,7.59,2.35,1.5,4.46,3.2,6.37,5.19,1.78,1.85,3.03,4.16,5.11,5.71,0,0,.01,0,.02.01v4.88c-1.99-1.7-4.06-3.3-6.23-4.83-4.78-3.39-9.4,4.24-4.67,7.59,1.9,1.34,3.68,2.8,5.39,4.33h-3.09c-2.79-2.58-5.51-5.22-8.15-7.95-4.05-4.17-10.58,2.06-6.55,6.21.57.59,1.16,1.15,1.73,1.73h-2.65c-1.18-1.44-3.02-2.55-4.4-3.61-3.07-2.36-6.21-4.63-9.41-6.83-4.83-3.33-9.46,4.29-4.67,7.59,2.08,1.43,4.14,2.88,6.15,4.4.78.58,1.97,1.28,3.02,2.01-.04.22-.06.45-.07.67-.96,1.24-2.1,2.49-2.8,3.5-1.56,2.23-3.11,4.46-4.67,6.69-3.3,4.73,4.72,9.13,8,4.43,2.18-3.12,4.36-6.25,6.54-9.37.16-.23.33-.46.51-.7h4.57c-.55.68-1.09,1.37-1.61,2.08-3.42,4.65,4.61,9.04,8,4.43,1.75-2.37,3.73-4.52,5.9-6.52h9.12c-.02,2.07-.05,4.14-.06,6.22-.19.19-.37.39-.54.61-2.1,2.73-3.88,5.64-5.37,8.7-1.52,1.56-2,4.01.07,5.93l.24.22c1.56,1.45,4.56,1.72,6.3.34.17,1.34.38,2.67.63,3.99-.62.24-1.24.5-1.85.77-.67-.12-1.37-.13-2.06.05-2.44.64-3.87,3.1-3.23,5.4.18.67.46,1.3.85,1.89,1.35,2.04,4.09,2.76,6.34,1.58,1.49-.79,2.94-1.41,4.48-1.95.3.05.61.06.92.05,1.48.77,2.9,1.62,4.25,2.58,1.89,1.35,3.78,2.72,6.3,2.47,2.49-.25,4.63-1.84,4.63-4.39,0-2.16-2.09-4.59-4.56-4.39-.08-.06-.17-.14-.28-.24-.67-.58-1.49-1.1-2.23-1.59-1.32-.88-2.7-1.66-4.13-2.38-.01,0-.02,0-.03-.01-.55-2.45-.91-4.93-1.15-7.44,1.01.93,2.01,1.86,3,2.81,4.19,4.03,10.74-2.18,6.55-6.21-2.14-2.06-4.34-4.07-6.61-6.01-1.08-.92-2.16-1.88-3.32-2.7.02-2.1.07-4.2.1-6.29h4.38c.6.84,1.49,1.54,2.56,1.93.34.12,2.12,2.7,2.68,3.39,1.25,1.55,2.5,3.1,3.76,4.65.73.91,1.65,1.44,2.62,1.68-4.72,1.1-4.33,8.65,1.2,8.65s5.93-7.43,1.31-8.62c2.88-.63,5.11-3.36,2.87-6.14-1.36-1.69-2.69-3.66-4.15-5.54h13.52c3.79,2.17,6.85,7.58,9.45,10.7,3.68,4.44,10.2-1.82,6.55-6.21Z"/>
  <path class="cls-4" d="M615.6,571.44c-5.96,0-5.97,8.78,0,8.78s5.97-8.78,0-8.78Z"/>
  <path class="cls-4" d="M662.67,594.76c-5.96,0-5.97,8.78,0,8.78s5.97-8.78,0-8.78Z"/>
  <path class="cls-4" d="M666.85,649.33c-5.96,0-5.97,8.78,0,8.78s5.97-8.78,0-8.78Z"/>
  <path class="cls-4" d="M597.29,655.78c-5.96,0-5.97,8.78,0,8.78s5.97-8.78,0-8.78Z"/>
  <path class="cls-4" d="M585.26,596.74c-5.96,0-5.97,8.78,0,8.78s5.97-8.78,0-8.78Z"/>
  <path class="cls-4" d="M640.7,573.43c-5.96,0-5.97,8.78,0,8.78s5.97-8.78,0-8.78Z"/>
  <path class="cls-4" d="M549.39,774.17c-5.96,0-5.97,8.78,0,8.78s5.97-8.78,0-8.78Z"/>
  <path class="cls-4" d="M742.27,620.54c-5.96,0-5.97,8.78,0,8.78s5.97-8.78,0-8.78Z"/>
  <path class="cls-4" d="M780.75,581.93c-5.96,0-5.97,8.78,0,8.78s5.97-8.78,0-8.78Z"/>
  <path class="cls-4" d="M736.7,581.93c-5.96,0-5.97,8.78,0,8.78s5.97-8.78,0-8.78Z"/>
  <path class="cls-5" d="M813.09,615.1c-2.56-3.08-5.17-7.3-8.5-10.16,1.27-2.03,2.71-3.94,4.39-5.76,3.91-4.24-2.62-10.48-6.55-6.21-2.55,2.76-4.76,5.68-6.62,8.86h-6.02c.2-.14.4-.29.61-.43,4.8-3.26.18-10.88-4.67-7.59-3.69,2.51-7.23,5.17-10.62,8.01h-7.14c2.08-1.2,4.22-2.3,6.42-3.3,5.37-2.46.67-10.04-4.67-7.59-1.12.51-2.21,1.06-3.29,1.63,0-2.04,0-4.08.01-6.12,2.83-3.34,6.09-6.31,9.77-8.82,4.79-3.28.17-10.9-4.67-7.59-1.78,1.22-3.46,2.51-5.07,3.85,0-.62,0-1.23,0-1.85,0-5.65-9.25-5.66-9.26,0v4.54c-2.1-1.95-4.42-3.65-6.86-5.2-4.96-3.16-9.6,4.44-4.67,7.59,2.35,1.5,4.46,3.2,6.37,5.19,1.78,1.85,3.03,4.16,5.11,5.71,0,0,.01,0,.02.01v4.88c-1.99-1.7-4.06-3.3-6.23-4.83-4.78-3.39-9.4,4.24-4.67,7.59,1.9,1.34,3.68,2.8,5.39,4.33h-3.09c-2.79-2.58-5.51-5.22-8.15-7.95-4.05-4.17-10.58,2.06-6.55,6.21.57.59,1.16,1.15,1.73,1.73h-2.65c-1.18-1.44-3.02-2.55-4.4-3.61-3.07-2.36-6.21-4.63-9.41-6.83-4.83-3.33-9.46,4.29-4.67,7.59,2.08,1.43,4.14,2.88,6.15,4.4.78.58,1.97,1.28,3.02,2.01-.04.22-.06.45-.07.67-.96,1.24-2.1,2.49-2.8,3.5-1.56,2.23-3.11,4.46-4.67,6.69-3.3,4.73,4.72,9.13,8,4.43,2.18-3.12,4.36-6.25,6.54-9.37.16-.23.33-.46.51-.7h4.57c-.55.68-1.09,1.37-1.61,2.08-3.42,4.65,4.61,9.04,8,4.43,1.75-2.37,3.73-4.52,5.9-6.52h9.12c-.02,2.07-.05,4.14-.06,6.22-.19.19-.37.39-.54.61-2.1,2.73-3.88,5.64-5.37,8.7-1.52,1.56-2,4.01.07,5.93l.24.22c1.56,1.45,4.56,1.72,6.3.34.17,1.34.38,2.67.63,3.99-.62.24-1.24.5-1.85.77-.67-.12-1.37-.13-2.06.05-2.44.64-3.87,3.1-3.23,5.4.18.67.46,1.3.85,1.89,1.35,2.04,4.09,2.76,6.34,1.58,1.49-.79,2.94-1.41,4.48-1.95.3.05.61.06.92.05,1.48.77,2.9,1.62,4.25,2.58,1.89,1.35,3.78,2.72,6.3,2.47,2.49-.25,4.63-1.84,4.63-4.39,0-2.16-2.09-4.59-4.56-4.39-.08-.06-.17-.14-.28-.24-.67-.58-1.49-1.1-2.23-1.59-1.32-.88-2.7-1.66-4.13-2.38-.01,0-.02,0-.03-.01-.55-2.45-.91-4.93-1.15-7.44,1.01.93,2.01,1.86,3,2.81,4.19,4.03,10.74-2.18,6.55-6.21-2.14-2.06-4.34-4.07-6.61-6.01-1.08-.92-2.16-1.88-3.32-2.7.02-2.1.07-4.2.1-6.29h4.38c.6.84,1.49,1.54,2.56,1.93.34.12,2.12,2.7,2.68,3.39,1.25,1.55,2.5,3.1,3.76,4.65.73.91,1.65,1.44,2.62,1.68-4.72,1.1-4.33,8.65,1.2,8.65s5.93-7.43,1.31-8.62c2.88-.63,5.11-3.36,2.87-6.14-1.36-1.69-2.69-3.66-4.15-5.54h13.52c3.79,2.17,6.85,7.58,9.45,10.7,3.68,4.44,10.2-1.82,6.55-6.21Z"/>
  <path class="cls-4" d="M749.26,552.8c-5.96,0-5.97,8.78,0,8.78s5.97-8.78,0-8.78Z"/>
  <path class="cls-4" d="M796.33,576.12c-5.96,0-5.97,8.78,0,8.78s5.97-8.78,0-8.78Z"/>
  <path class="cls-4" d="M800.51,630.69c-5.96,0-5.97,8.78,0,8.78s5.97-8.78,0-8.78Z"/>
  <path class="cls-4" d="M730.95,637.13c-5.96,0-5.97,8.78,0,8.78s5.97-8.78,0-8.78Z"/>
  <path class="cls-4" d="M718.92,578.1c-5.96,0-5.97,8.78,0,8.78s5.97-8.78,0-8.78Z"/>
  <path class="cls-4" d="M774.36,554.79c-5.96,0-5.97,8.78,0,8.78s5.97-8.78,0-8.78Z"/>
  <path class="cls-4" d="M614.72,839.5c-5.96,0-5.97,8.78,0,8.78s5.97-8.78,0-8.78Z"/>
  <path class="cls-4" d="M653.21,800.89c-5.96,0-5.97,8.78,0,8.78s5.97-8.78,0-8.78Z"/>
  <path class="cls-4" d="M609.15,800.89c-5.96,0-5.97,8.78,0,8.78s5.97-8.78,0-8.78Z"/>
  <path class="cls-1" d="M685.54,834.06c-2.56-3.08-5.17-7.3-8.5-10.16,1.27-2.03,2.71-3.94,4.39-5.76,3.91-4.24-2.62-10.48-6.55-6.21-2.55,2.76-4.76,5.68-6.62,8.86h-6.02c.2-.14.4-.29.61-.43,4.8-3.26.18-10.88-4.67-7.59-3.69,2.51-7.23,5.17-10.62,8.01h-7.14c2.08-1.2,4.22-2.3,6.42-3.3,5.37-2.46.67-10.04-4.67-7.59-1.12.51-2.21,1.06-3.29,1.63,0-2.04,0-4.08.01-6.12,2.83-3.34,6.09-6.31,9.77-8.82,4.79-3.28.17-10.9-4.67-7.59-1.78,1.22-3.46,2.51-5.07,3.85,0-.62,0-1.23,0-1.85,0-5.65-9.25-5.66-9.26,0v4.54c-2.1-1.95-4.42-3.65-6.86-5.2-4.96-3.16-9.6,4.44-4.67,7.59,2.35,1.5,4.46,3.2,6.37,5.19,1.78,1.85,3.03,4.16,5.11,5.71,0,0,.01,0,.02.01v4.88c-1.99-1.7-4.06-3.3-6.23-4.83-4.78-3.39-9.4,4.24-4.67,7.59,1.9,1.34,3.68,2.8,5.39,4.33h-3.09c-2.79-2.58-5.51-5.22-8.15-7.95-4.05-4.17-10.58,2.06-6.55,6.21.57.59,1.16,1.15,1.73,1.73h-2.65c-1.18-1.44-3.02-2.55-4.4-3.61-3.07-2.36-6.21-4.63-9.41-6.83-4.83-3.33-9.46,4.29-4.67,7.59,2.08,1.43,4.14,2.88,6.15,4.4.78.58,1.97,1.28,3.02,2.01-.04.22-.06.45-.07.67-.96,1.24-2.1,2.49-2.8,3.5-1.56,2.23-3.11,4.46-4.67,6.69-3.3,4.73,4.72,9.13,8,4.43,2.18-3.12,4.36-6.25,6.54-9.37.16-.23.33-.46.51-.7h4.57c-.55.68-1.09,1.37-1.61,2.08-3.42,4.65,4.61,9.04,8,4.43,1.75-2.37,3.73-4.52,5.9-6.52h9.12c-.02,2.07-.05,4.14-.06,6.22-.19.19-.37.39-.54.61-2.1,2.73-3.88,5.64-5.37,8.7-1.52,1.56-2,4.01.07,5.93l.24.22c1.56,1.45,4.56,1.72,6.3.34.17,1.34.38,2.67.63,3.99-.62.24-1.24.5-1.85.77-.67-.12-1.37-.13-2.06.05-2.44.64-3.87,3.1-3.23,5.4.18.67.46,1.3.85,1.89,1.35,2.04,4.09,2.76,6.34,1.58,1.49-.79,2.94-1.41,4.48-1.95.3.05.61.06.92.05,1.48.77,2.9,1.62,4.25,2.58,1.89,1.35,3.78,2.72,6.3,2.47,2.49-.25,4.63-1.84,4.63-4.39,0-2.16-2.09-4.59-4.56-4.39-.08-.06-.17-.14-.28-.24-.67-.58-1.49-1.1-2.23-1.59-1.32-.88-2.7-1.66-4.13-2.38-.01,0-.02,0-.03-.01-.55-2.45-.91-4.93-1.15-7.44,1.01.93,2.01,1.86,3,2.81,4.19,4.03,10.74-2.18,6.55-6.21-2.14-2.06-4.34-4.07-6.61-6.01-1.08-.92-2.16-1.88-3.32-2.7.02-2.1.07-4.2.1-6.29h4.38c.6.84,1.49,1.54,2.56,1.93.34.12,2.12,2.7,2.68,3.39,1.25,1.55,2.5,3.1,3.76,4.65.73.91,1.65,1.44,2.62,1.68-4.72,1.1-4.33,8.65,1.2,8.65s5.93-7.43,1.31-8.62c2.88-.63,5.11-3.36,2.87-6.14-1.36-1.69-2.69-3.66-4.15-5.54h13.52c3.79,2.17,6.85,7.58,9.45,10.7,3.68,4.44,10.2-1.82,6.55-6.21Z"/>
  <path class="cls-4" d="M621.71,771.77c-5.96,0-5.97,8.78,0,8.78s5.97-8.78,0-8.78Z"/>
  <path class="cls-4" d="M668.78,795.08c-5.96,0-5.97,8.78,0,8.78s5.97-8.78,0-8.78Z"/>
  <path class="cls-4" d="M672.97,849.65c-5.96,0-5.97,8.78,0,8.78s5.97-8.78,0-8.78Z"/>
  <path class="cls-4" d="M603.4,856.1c-5.96,0-5.97,8.78,0,8.78s5.97-8.78,0-8.78Z"/>
  <path class="cls-4" d="M591.37,797.07c-5.96,0-5.97,8.78,0,8.78s5.97-8.78,0-8.78Z"/>
  <path class="cls-4" d="M646.81,773.75c-5.96,0-5.97,8.78,0,8.78s5.97-8.78,0-8.78Z"/>
  <path class="cls-4" d="M699.71,743.1c-5.96,0-5.97,8.78,0,8.78s5.97-8.78,0-8.78Z"/>
  <path class="cls-4" d="M738.19,704.49c-5.96,0-5.97,8.78,0,8.78s5.97-8.78,0-8.78Z"/>
  <path class="cls-4" d="M694.13,704.49c-5.96,0-5.97,8.78,0,8.78s5.97-8.78,0-8.78Z"/>
  <path class="cls-5" d="M770.53,737.66c-2.56-3.08-5.17-7.3-8.5-10.16,1.27-2.03,2.71-3.94,4.39-5.76,3.91-4.24-2.62-10.48-6.55-6.21-2.55,2.76-4.76,5.68-6.62,8.86h-6.02c.2-.14.4-.29.61-.43,4.8-3.26.18-10.88-4.67-7.59-3.69,2.51-7.23,5.17-10.62,8.01h-7.14c2.08-1.2,4.22-2.3,6.42-3.3,5.37-2.46.67-10.04-4.67-7.59-1.12.51-2.21,1.06-3.29,1.63,0-2.04,0-4.08.01-6.12,2.83-3.34,6.09-6.31,9.77-8.82,4.79-3.28.17-10.9-4.67-7.59-1.78,1.22-3.46,2.51-5.07,3.85,0-.62,0-1.23,0-1.85,0-5.65-9.25-5.66-9.26,0v4.54c-2.1-1.95-4.42-3.65-6.86-5.2-4.96-3.16-9.6,4.44-4.67,7.59,2.35,1.5,4.46,3.2,6.37,5.19,1.78,1.85,3.03,4.16,5.11,5.71,0,0,.01,0,.02.01v4.88c-1.99-1.7-4.06-3.3-6.23-4.83-4.78-3.39-9.4,4.24-4.67,7.59,1.9,1.34,3.68,2.8,5.39,4.33h-3.09c-2.79-2.58-5.51-5.22-8.15-7.95-4.05-4.17-10.58,2.06-6.55,6.21.57.59,1.16,1.15,1.73,1.73h-2.65c-1.18-1.44-3.02-2.55-4.4-3.61-3.07-2.36-6.21-4.63-9.41-6.83-4.83-3.33-9.46,4.29-4.67,7.59,2.08,1.43,4.14,2.88,6.15,4.4.78.58,1.97,1.28,3.02,2.01-.04.22-.06.45-.07.67-.96,1.24-2.1,2.49-2.8,3.5-1.56,2.23-3.11,4.46-4.67,6.69-3.3,4.73,4.72,9.13,8,4.43,2.18-3.12,4.36-6.25,6.54-9.37.16-.23.33-.46.51-.7h4.57c-.55.68-1.09,1.37-1.61,2.08-3.42,4.65,4.61,9.04,8,4.43,1.75-2.37,3.73-4.52,5.9-6.52h9.12c-.02,2.07-.05,4.14-.06,6.22-.19.19-.37.39-.54.61-2.1,2.73-3.88,5.64-5.37,8.7-1.52,1.56-2,4.01.07,5.93l.24.22c1.56,1.45,4.56,1.72,6.3.34.17,1.34.38,2.67.63,3.99-.62.24-1.24.5-1.85.77-.67-.12-1.37-.13-2.06.05-2.44.64-3.87,3.1-3.23,5.4.18.67.46,1.3.85,1.89,1.35,2.04,4.09,2.76,6.34,1.58,1.49-.79,2.94-1.41,4.48-1.95.3.05.61.06.92.05,1.48.77,2.9,1.62,4.25,2.58,1.89,1.35,3.78,2.72,6.3,2.47,2.49-.25,4.63-1.84,4.63-4.39,0-2.16-2.09-4.59-4.56-4.39-.08-.06-.17-.14-.28-.24-.67-.58-1.49-1.1-2.23-1.59-1.32-.88-2.7-1.66-4.13-2.38-.01,0-.02,0-.03-.01-.55-2.45-.91-4.93-1.15-7.44,1.01.93,2.01,1.86,3,2.81,4.19,4.03,10.74-2.18,6.55-6.21-2.14-2.06-4.34-4.07-6.61-6.01-1.08-.92-2.16-1.88-3.32-2.7.02-2.1.07-4.2.1-6.29h4.38c.6.84,1.49,1.54,2.56,1.93.34.12,2.12,2.7,2.68,3.39,1.25,1.55,2.5,3.1,3.76,4.65.73.91,1.65,1.44,2.62,1.68-4.72,1.1-4.33,8.65,1.2,8.65s5.93-7.43,1.31-8.62c2.88-.63,5.11-3.36,2.87-6.14-1.36-1.69-2.69-3.66-4.15-5.54h13.52c3.79,2.17,6.85,7.58,9.45,10.7,3.68,4.44,10.2-1.82,6.55-6.21Z"/>
  <path class="cls-4" d="M706.69,675.36c-5.96,0-5.97,8.78,0,8.78s5.97-8.78,0-8.78Z"/>
  <path class="cls-4" d="M753.77,698.68c-5.96,0-5.97,8.78,0,8.78s5.97-8.78,0-8.78Z"/>
  <path class="cls-4" d="M757.95,753.25c-5.96,0-5.97,8.78,0,8.78s5.97-8.78,0-8.78Z"/>
  <path class="cls-4" d="M688.39,759.69c-5.96,0-5.97,8.78,0,8.78s5.97-8.78,0-8.78Z"/>
  <path class="cls-4" d="M676.36,700.66c-5.96,0-5.97,8.78,0,8.78s5.97-8.78,0-8.78Z"/>
  <path class="cls-4" d="M731.8,677.35c-5.96,0-5.97,8.78,0,8.78s5.97-8.78,0-8.78Z"/>
  <path class="cls-4" d="M517.2,735.12c-5.96,0-5.97,8.78,0,8.78s5.97-8.78,0-8.78Z"/>
  <path class="cls-4" d="M555.68,696.51c-5.96,0-5.97,8.78,0,8.78s5.97-8.78,0-8.78Z"/>
  <path class="cls-4" d="M511.63,696.51c-5.96,0-5.97,8.78,0,8.78s5.97-8.78,0-8.78Z"/>
  <path class="cls-1" d="M588.02,729.68c-2.56-3.08-5.17-7.3-8.5-10.16,1.27-2.03,2.71-3.94,4.39-5.76,3.91-4.24-2.62-10.48-6.55-6.21-2.55,2.76-4.76,5.68-6.62,8.86h-6.02c.2-.14.4-.29.61-.43,4.8-3.26.18-10.88-4.67-7.59-3.69,2.51-7.23,5.17-10.62,8.01h-7.14c2.08-1.2,4.22-2.3,6.42-3.3,5.37-2.46.67-10.04-4.67-7.59-1.12.51-2.21,1.06-3.29,1.63,0-2.04,0-4.08.01-6.12,2.83-3.34,6.09-6.31,9.77-8.82,4.79-3.28.17-10.9-4.67-7.59-1.78,1.22-3.46,2.51-5.07,3.85,0-.62,0-1.23,0-1.85,0-5.65-9.25-5.66-9.26,0v4.54c-2.1-1.95-4.42-3.65-6.86-5.2-4.96-3.16-9.6,4.44-4.67,7.59,2.35,1.5,4.46,3.2,6.37,5.19,1.78,1.85,3.03,4.16,5.11,5.71,0,0,.01,0,.02.01v4.88c-1.99-1.7-4.06-3.3-6.23-4.83-4.78-3.39-9.4,4.24-4.67,7.59,1.9,1.34,3.68,2.8,5.39,4.33h-3.09c-2.79-2.58-5.51-5.22-8.15-7.95-4.05-4.17-10.58,2.06-6.55,6.21.57.59,1.16,1.15,1.73,1.73h-2.65c-1.18-1.44-3.02-2.55-4.4-3.61-3.07-2.36-6.21-4.63-9.41-6.83-4.83-3.33-9.46,4.29-4.67,7.59,2.08,1.43,4.14,2.88,6.15,4.4.78.58,1.97,1.28,3.02,2.01-.04.22-.06.45-.07.67-.96,1.24-2.1,2.49-2.8,3.5-1.56,2.23-3.11,4.46-4.67,6.69-3.3,4.73,4.72,9.13,8,4.43,2.18-3.12,4.36-6.25,6.54-9.37.16-.23.33-.46.51-.7h4.57c-.55.68-1.09,1.37-1.61,2.08-3.42,4.65,4.61,9.04,8,4.43,1.75-2.37,3.73-4.52,5.9-6.52h9.12c-.02,2.07-.05,4.14-.06,6.22-.19.19-.37.39-.54.61-2.1,2.73-3.88,5.64-5.37,8.7-1.52,1.56-2,4.01.07,5.93l.24.22c1.56,1.45,4.56,1.72,6.3.34.17,1.34.38,2.67.63,3.99-.62.24-1.24.5-1.85.77-.67-.12-1.37-.13-2.06.05-2.44.64-3.87,3.1-3.23,5.4.18.67.46,1.3.85,1.89,1.35,2.04,4.09,2.76,6.34,1.58,1.49-.79,2.94-1.41,4.48-1.95.3.05.61.06.92.05,1.48.77,2.9,1.62,4.25,2.58,1.89,1.35,3.78,2.72,6.3,2.47,2.49-.25,4.63-1.84,4.63-4.39,0-2.16-2.09-4.59-4.56-4.39-.08-.06-.17-.14-.28-.24-.67-.58-1.49-1.1-2.23-1.59-1.32-.88-2.7-1.66-4.13-2.38-.01,0-.02,0-.03-.01-.55-2.45-.91-4.93-1.15-7.44,1.01.93,2.01,1.86,3,2.81,4.19,4.03,10.74-2.18,6.55-6.21-2.14-2.06-4.34-4.07-6.61-6.01-1.08-.92-2.16-1.88-3.32-2.7.02-2.1.07-4.2.1-6.29h4.38c.6.84,1.49,1.54,2.56,1.93.34.12,2.12,2.7,2.68,3.39,1.25,1.55,2.5,3.1,3.76,4.65.73.91,1.65,1.44,2.62,1.68-4.72,1.1-4.33,8.65,1.2,8.65s5.93-7.43,1.31-8.62c2.88-.63,5.11-3.36,2.87-6.14-1.36-1.69-2.69-3.66-4.15-5.54h13.52c3.79,2.17,6.85,7.58,9.45,10.7,3.68,4.44,10.2-1.82,6.55-6.21Z"/>
  <path class="cls-4" d="M524.19,667.39c-5.96,0-5.97,8.78,0,8.78s5.97-8.78,0-8.78Z"/>
  <path class="cls-4" d="M571.26,690.7c-5.96,0-5.97,8.78,0,8.78s5.97-8.78,0-8.78Z"/>
  <path class="cls-4" d="M575.44,745.27c-5.96,0-5.97,8.78,0,8.78s5.97-8.78,0-8.78Z"/>
  <path class="cls-4" d="M505.88,751.72c-5.96,0-5.97,8.78,0,8.78s5.97-8.78,0-8.78Z"/>
  <path class="cls-4" d="M493.85,692.69c-5.96,0-5.97,8.78,0,8.78s5.97-8.78,0-8.78Z"/>
  <path class="cls-4" d="M549.29,669.37c-5.96,0-5.97,8.78,0,8.78s5.97-8.78,0-8.78Z"/>
</svg>