<?xml version="1.0" encoding="UTF-8"?>
<svg id="_图层_1" data-name=" 图层 1" xmlns="http://www.w3.org/2000/svg" viewBox="0 0 1280 1024">
  <defs>
    <style>
      .cls-1 {
        fill: none;
        isolation: isolate;
        opacity: .52;
        stroke-width: 6.39px;
      }

      .cls-1, .cls-2 {
        stroke: #000;
        stroke-miterlimit: 10;
      }

      .cls-3 {
        fill: #000;
      }

      .cls-3, .cls-4, .cls-5 {
        stroke-width: 0px;
      }

      .cls-2 {
        fill: #d03800;
        stroke-width: .91px;
      }

      .cls-4 {
        fill: #fff79f;
      }

      .cls-5 {
        fill: #ffa635;
      }
    </style>
  </defs>
  <g>
    <path class="cls-4" d="M638.1,236.99c4.57-1.65,9.61,14.62,12.62,19.57,22.73,47.67,58.89,53.71,103.54,31.62,8.28-3.54,31.7-23.22,31.52-7.34.37,8.02-1.9,43.84.83,54.34,4.38,19.61,11.05,22.69,29.14,30.82,14.9,7.14,34.1,9.05,50.26,7.75,7.84-.38,12.82-.57,13.62,1.39,1.22,3.38-7.63,12.76-10.41,17.71-20.93,28.94-16.02,76.39,5.38,93.42,6.85,5.58,14.65,9.37,22.56,13.36,7.32,4.14,22.09,8.58,23.78,15.62.16,2.37-2.77,4.24-8.32,6.81-47.87,18.32-71.16,55.07-44.27,103.52,3.03,6.48,15.07,20.25,9.34,25.02-6.61,3.72-17.04,2.14-24.94,2.72-32.45-.16-63.86,15.96-70.62,48.8-2.58,10.81-2.47,23-2.16,33.31.41,11.85.16,20.89-2.02,23.58-3.52,7.31-27.38-30.37-55.17-30.77-14.62-1.43-29.59,2.77-42.04,10.4-13.92,8.34-22.46,21.01-30.24,34.47-4.9,7.82-7.1,13.5-11.71,13.99-7.73-1.46-11.04-21.14-26.22-37.57-24.05-27.71-52.86-28.33-84.3-13.01-11.15,4.99-20.4,10.46-25.28,13.23-3.88,1.98-5.52,3.46-5.02-3.65,1.09-25.32-3.84-68.25-29.71-84.27-17.42-12.16-42.74-9.92-63.66-9.31-7.64-.34-8.19-3.29-4.1-10.22,2.31-3.99,6.38-9.86,9.15-14.67,19.88-32.46,12.66-74.11-18.45-95.94-7.15-5.48-16.46-9.84-24.23-13.28-5.1-2.34-8.04-3.95-7.87-5.56.09-1.43,2.6-2.88,6.94-4.82,22.98-8.57,46.06-24.71,54.46-48.13,16.84-43.84-28.23-69.5-24.08-84.58,1.18-2.1,4.52-2.94,9.5-3.07,5.52-.13,13,.48,19.17.62,51.34,1.82,77.7-36.22,71.65-83.75-.16-5.65.16-9.25,1.87-10.22,1.62-.99,4.52.44,8.77,3.27,3.64,2.44,8.56,5.99,12.82,8.54,41.91,25.54,92.95-1.83,111.81-46.13,2.37-4.15,4.26-6.91,6.01-7.57l.07-.03h0Z"/>
    <path class="cls-3" d="M638.64,790.81l-.53-.1c-5.65-1.07-8.73-7.04-12.99-15.3-3.59-6.96-8.05-15.61-15.23-23.38l-.07-.08c-20.97-24.15-47.11-28.12-79.95-12.13l-.11.05c-9.78,4.36-18.19,9.19-23.21,12.07l-1.89,1.08c-.31.16-.6.31-.88.46-2.19,1.15-4.67,2.46-7.14.83-2.55-1.66-2.56-4.92-2.31-8.4,1.22-28.61-5.37-66.95-27.99-80.95l-.16-.11c-14.77-10.3-36.33-9.54-55.35-8.87-2.07.07-4.12.15-6.12.2h-.27c-3.11-.14-7.46-.71-9.33-4.16-1.94-3.56.05-7.84,2.25-11.57,1.11-1.93,2.6-4.24,4.18-6.68,1.73-2.69,3.53-5.48,4.95-7.94l.05-.08c19.24-31.42,11.74-70.56-17.43-91.05l-.12-.09c-6.65-5.1-15.21-9.18-23.49-12.84-5.38-2.47-10.43-4.77-10.04-9.2.28-3.63,4.11-5.63,9.09-7.84l.22-.09c26.28-9.8,45.34-26.55,52.31-45.94,10.14-26.41-3.4-45.38-14.26-60.64-6.61-9.28-11.84-16.61-9.89-23.68l.12-.43.22-.39c2.33-4.14,7.95-4.8,12.58-4.93,3.52-.08,7.75.13,11.85.32,2.53.12,5.14.25,7.49.3,21.86.78,39.88-5.92,52.13-19.35,13.29-14.56,18.9-35.98,15.81-60.3l-.03-.36c-.16-5.88,0-11.34,3.67-13.47,3.69-2.2,8.08.34,12.64,3.38,1.11.75,2.35,1.59,3.63,2.48,2.89,1.99,6.16,4.24,9.04,5.96,16.24,9.89,34.63,11.97,53.19,6.01,23.15-7.43,43.1-26.29,53.37-50.43l.19-.38c2.86-4.99,5.06-8.1,7.87-9.17l.14-.05c6.48-2.35,10.58,7,14.21,15.25,1.05,2.39,2.05,4.66,2.78,5.86l.17.32c9.81,20.57,22.56,33.69,37.9,39,16.55,5.73,36.98,2.68,60.72-9.08l.18-.08c1.75-.75,4.62-2.54,7.66-4.44,9.23-5.76,18.78-11.72,24.87-8.3,1.88,1.06,4.11,3.42,4.07,8.69.11,2.6-.02,7.53-.18,13.74-.35,13.12-.87,32.95.89,39.75l.03.12c4.01,17.93,9.35,20.33,27.07,28.28,12.9,6.18,30.54,8.88,48.47,7.44h.12c9.59-.47,15.37-.76,17.18,3.64l.05.15c1.42,3.91-1.64,8.3-6.75,15.13-1.6,2.15-3.11,4.17-3.92,5.61l-.23.36c-9.27,12.82-13.83,30.59-12.5,48.77,1.26,17.27,7.69,32.09,17.19,39.66,6.17,5.03,13.15,8.54,20.55,12.25l1.54.78c1.8,1.01,4.18,2.1,6.7,3.24,8.04,3.65,17.17,7.8,18.83,14.7l.07.29.02.3c.38,5.37-5.62,8.15-10.43,10.38l-.23.1c-26.13,10-43.49,25-50.19,43.38-5.96,16.38-3.34,34.86,7.81,54.95l.12.23c.7,1.5,2.09,3.66,3.57,5.95,4.85,7.53,11.49,17.84,4.79,23.41l-.26.21-.29.16c-5.54,3.11-12.91,3.08-19.41,3.04-2.52,0-4.9-.03-7.04.14h-.29c-42.42-.18-62.64,24.6-67.03,45.9l-.03.11c-2.37,9.94-2.39,21.42-2.06,32.35.53,15.21-.17,22.31-2.58,25.66-.78,1.34-1.99,2.23-3.46,2.52-3.85.75-7.72-2.74-14.74-9.09-9.83-8.88-24.66-22.3-40.11-22.52l-.3-.02c-13.13-1.29-27.26,2.22-39.78,9.88-13.83,8.28-22.21,21.47-28.99,33.18l-.06.11c-1,1.61-1.89,3.1-2.74,4.55-3.47,5.9-6.21,10.56-11.68,11.13l-.54.05.05.02h0ZM615.29,747.12c7.83,8.48,12.53,17.61,16.32,24.95,2.58,5.01,5.25,10.18,7.34,11.28,1.65-.7,3.42-3.72,5.61-7.42.82-1.41,1.76-3,2.81-4.67,7.23-12.49,16.23-26.57,31.49-35.71,13.79-8.44,29.46-12.32,44.13-10.91,18.14.35,34.15,14.82,44.75,24.41,2.68,2.43,5.9,5.33,7.83,6.65.57-1.99,1.21-7.08.75-20.08-.35-11.42-.31-23.47,2.25-34.23,3.39-16.35,12.82-29.86,27.28-39.06,12.78-8.13,29.26-12.6,46.45-12.6h.34c2.38-.16,4.97-.16,7.47-.15,5.67.04,11.52.05,15.4-1.89.79-1.24-1.35-5.84-6.4-13.69-1.58-2.46-3.08-4.78-3.99-6.69-12.17-21.98-14.94-42.47-8.23-60.9,7.43-20.4,26.22-36.88,54.32-47.66,3.84-1.78,5.33-2.79,5.91-3.33-1.73-3.23-9.31-6.68-14.46-9.02-2.64-1.2-5.14-2.33-7.2-3.49l-1.31-.66c-7.41-3.73-15.09-7.59-21.84-13.09-11.04-8.79-18.49-25.56-19.9-44.82-1.44-19.79,3.56-39.25,13.75-53.42,1.04-1.81,2.64-3.95,4.33-6.21,1.49-2,3.98-5.33,5.09-7.44-2.25-.17-6.21.02-9.31.17-19.17,1.53-38.14-1.42-52.08-8.1-18.03-8.1-26.31-11.82-31.11-33.26-2.01-7.84-1.49-27.41-1.11-41.71.16-5.91.29-11,.18-13.32v-.2c.02-1.85-.37-2.36-.38-2.37,0,0-.14-.05-.5-.05-.74,0-2.38.24-5.55,1.7-3.59,1.66-7.71,4.24-11.34,6.5-3.38,2.11-6.3,3.94-8.56,4.91-25.53,12.61-47.83,15.77-66.28,9.39-17.21-5.95-31.35-20.29-42.02-42.6-.95-1.61-1.95-3.9-3.11-6.55-1.31-2.99-3.87-8.83-5.61-10.79-.63.7-1.71,2.17-3.48,5.27-11.12,25.98-32.71,46.28-57.78,54.33-20.65,6.63-41.12,4.31-59.2-6.71-3.05-1.83-6.43-4.15-9.41-6.2-1.26-.87-2.47-1.7-3.55-2.42-2.51-1.67-3.93-2.4-4.71-2.72-.18.92-.34,2.75-.25,6.36,3.32,26.41-2.95,49.82-17.68,65.96-13.74,15.07-33.7,22.57-57.75,21.72-2.39-.05-5.06-.18-7.63-.3-3.97-.19-8.08-.39-11.33-.32-4.14.11-5.67.74-6.18,1.05-.37,3.82,4.15,10.15,8.91,16.83,11.26,15.8,26.68,37.43,15.17,67.43-7.65,21.32-28.24,39.64-56.49,50.2-1.45.65-2.49,1.17-3.24,1.56,1.03.57,2.47,1.27,4.31,2.11,8.62,3.82,17.62,8.12,24.87,13.66,15.7,11.04,26.26,27.47,29.77,46.27,3.46,18.56-.21,37.92-10.35,54.5-1.51,2.61-3.34,5.46-5.11,8.21-1.52,2.37-2.97,4.61-4.02,6.41-1.46,2.47-1.87,3.73-1.99,4.29.42.15,1.3.36,2.96.44,1.95-.05,3.93-.13,5.94-.2,20.13-.71,42.95-1.52,59.7,10.12,12.29,7.64,21.2,21.35,26.48,40.74,3.78,13.87,5.55,30.9,4.87,46.74v.07l1.29-.74c5.13-2.94,13.72-7.87,23.82-12.38,17.29-8.41,32.64-11.67,46.9-9.94,15.53,1.87,29.55,9.89,41.67,23.83v.02h0Z"/>
  </g>
  <circle class="cls-5" cx="640.03" cy="512" r="167.03"/>
  <path class="cls-2" d="M640.03,512v.97-1.94.97Z"/>
  <path class="cls-1" d="M654.09,427.66c36.16,4.36,71.8,42.63,69.72,85.42"/>
</svg>