<?xml version="1.0" encoding="utf-8"?>
<!-- Generator: Adobe Illustrator 28.3.0, SVG Export Plug-In . SVG Version: 6.00 Build 0)  -->
<svg version="1.1" id="_图层_1" xmlns="http://www.w3.org/2000/svg" xmlns:xlink="http://www.w3.org/1999/xlink" x="0px" y="0px"
	 viewBox="0 0 1280 1024" style="enable-background:new 0 0 1280 1024;" xml:space="preserve">
<style type="text/css">
	.st0{fill:#F0F0F0;}
	.st1{fill:#B4B4B4;}
	.st2{fill:#5F5F5F;stroke:#000000;stroke-width:0.9226;stroke-miterlimit:10;}
	.st3{opacity:0.52;fill:none;stroke:#000000;stroke-width:6.4276;stroke-miterlimit:10;enable-background:new    ;}
</style>
<g>
	<g>
		<path class="st0" d="M634.1,234.6c4.6-1.7,9.7,14.6,12.8,19.6c23,47.6,59.5,53.7,104.7,31.6c8.4-3.5,32-23.2,31.9-7.3
			c0.4,8-1.9,43.8,0.8,54.3c4.4,19.6,11.2,22.7,29.5,30.8c15.1,7.1,34.5,9,50.8,7.7c7.9-0.4,13-0.6,13.8,1.4
			c1.2,3.4-7.7,12.8-10.5,17.7c-21.2,28.9-16.2,76.3,5.4,93.4c6.9,5.6,14.8,9.4,22.8,13.4c7.4,4.1,22.3,8.6,24,15.6
			c0.2,2.4-2.8,4.2-8.4,6.8c-48.4,18.3-71.9,55-44.8,103.5c3.1,6.5,15.2,20.2,9.4,25c-6.7,3.7-17.2,2.1-25.2,2.7
			c-32.8-0.2-64.5,16-71.4,48.8c-2.6,10.8-2.5,23-2.2,33.3c0.4,11.8,0.2,20.9-2,23.6c-3.6,7.3-27.7-30.4-55.8-30.8
			c-14.8-1.4-29.9,2.8-42.5,10.4c-14.1,8.3-22.7,21-30.6,34.5c-5,7.8-7.2,13.5-11.8,14c-7.8-1.5-11.2-21.1-26.5-37.6
			c-24.3-27.7-53.4-28.3-85.2-13c-11.3,5-20.6,10.5-25.5,13.2c-3.9,2-5.6,3.5-5.1-3.7c1.1-25.3-3.9-68.2-30-84.2
			c-17.6-12.2-43.2-9.9-64.3-9.3c-7.7-0.3-8.3-3.3-4.1-10.2c2.3-4,6.5-9.9,9.2-14.7c20.1-32.4,12.8-74.1-18.6-95.9
			c-7.2-5.5-16.6-9.8-24.5-13.3c-5.2-2.3-8.1-4-8-5.6c0.1-1.4,2.6-2.9,7-4.8c23.2-8.6,46.6-24.7,55.1-48.1
			c17-43.8-28.5-69.5-24.3-84.5c1.2-2.1,4.6-2.9,9.6-3.1c5.6-0.1,13.1,0.5,19.4,0.6c51.9,1.8,78.6-36.2,72.4-83.7
			c-0.2-5.6,0.2-9.2,1.9-10.2c1.6-1,4.6,0.4,8.9,3.3c3.7,2.4,8.6,6,13,8.5c42.4,25.5,94-1.8,113-46.1
			C630.3,238,632.2,235.3,634.1,234.6L634.1,234.6L634.1,234.6L634.1,234.6z"/>
		<path d="M634.6,788.2l-0.5-0.1c-5.7-1.1-8.8-7-13.1-15.3c-3.6-7-8.1-15.6-15.4-23.4l-0.1-0.1c-21.2-24.1-47.6-28.1-80.8-12.1
			l-0.1,0.1c-9.9,4.4-18.4,9.2-23.5,12.1l-1.9,1.1c-0.3,0.2-0.6,0.3-0.9,0.5c-2.2,1.2-4.7,2.5-7.2,0.8c-2.6-1.7-2.6-4.9-2.3-8.4
			c1.2-28.6-5.4-66.9-28.3-80.9l-0.2-0.1c-14.9-10.3-36.7-9.5-55.9-8.9c-2.1,0.1-4.2,0.1-6.2,0.2h-0.3c-3.1-0.1-7.5-0.7-9.4-4.2
			c-2-3.6,0.1-7.8,2.3-11.6c1.1-1.9,2.6-4.2,4.2-6.7c1.8-2.7,3.6-5.5,5-7.9l0-0.1c19.4-31.4,11.9-70.5-17.6-91l-0.1-0.1
			c-6.7-5.1-15.4-9.2-23.7-12.8c-5.4-2.5-10.5-4.8-10.1-9.2c0.3-3.6,4.2-5.6,9.2-7.8l0.2-0.1c26.6-9.8,45.8-26.5,52.9-45.9
			c10.2-26.4-3.4-45.4-14.4-60.6c-6.7-9.3-12-16.6-10-23.7l0.1-0.4l0.2-0.4c2.4-4.1,8-4.8,12.7-4.9c3.6-0.1,7.8,0.1,12,0.3
			c2.6,0.1,5.2,0.2,7.6,0.3c22.1,0.8,40.3-5.9,52.7-19.3c13.4-14.6,19.1-36,16-60.3l0-0.4c-0.2-5.9,0-11.3,3.7-13.5
			c3.7-2.2,8.2,0.3,12.8,3.4c1.1,0.8,2.4,1.6,3.7,2.5c2.9,2,6.2,4.2,9.1,6c16.4,9.9,35,12,53.8,6c23.4-7.4,43.6-26.3,54-50.4
			l0.2-0.4c2.9-5,5.1-8.1,8-9.2l0.1-0.1c6.6-2.3,10.7,7,14.4,15.2c1.1,2.4,2.1,4.7,2.8,5.9l0.2,0.3c9.9,20.6,22.8,33.7,38.3,39
			c16.7,5.7,37.4,2.7,61.4-9.1l0.2-0.1c1.8-0.8,4.7-2.5,7.7-4.4c9.3-5.8,19-11.7,25.1-8.3c1.9,1.1,4.2,3.4,4.1,8.7
			c0.1,2.6,0,7.5-0.2,13.7c-0.3,13.1-0.9,32.9,0.9,39.7l0,0.1c4.1,17.9,9.4,20.3,27.4,28.3c13,6.2,30.9,8.9,49,7.4h0.1
			c9.7-0.5,15.5-0.8,17.4,3.6l0.1,0.1c1.4,3.9-1.7,8.3-6.8,15.1c-1.6,2.1-3.1,4.2-4,5.6l-0.2,0.4c-9.4,12.8-14,30.6-12.6,48.7
			c1.3,17.3,7.8,32.1,17.4,39.6c6.2,5,13.3,8.5,20.8,12.2l1.6,0.8c1.8,1,4.2,2.1,6.8,3.2c8.1,3.7,17.4,7.8,19,14.7l0.1,0.3l0,0.3
			c0.4,5.4-5.7,8.2-10.5,10.4l-0.2,0.1c-26.4,10-44,25-50.7,43.4c-6,16.4-3.4,34.8,7.9,54.9l0.1,0.2c0.7,1.5,2.1,3.7,3.6,5.9
			c4.9,7.5,11.6,17.8,4.8,23.4l-0.3,0.2l-0.3,0.2c-5.6,3.1-13.1,3.1-19.6,3c-2.5,0-5,0-7.1,0.1H851c-42.9-0.2-63.3,24.6-67.8,45.9
			l0,0.1c-2.4,9.9-2.4,21.4-2.1,32.3c0.5,15.2-0.2,22.3-2.6,25.6c-0.8,1.3-2,2.2-3.5,2.5c-3.9,0.8-7.8-2.7-14.9-9.1
			c-9.9-8.9-24.9-22.3-40.5-22.5l-0.3,0c-13.3-1.3-27.6,2.2-40.2,9.9c-14,8.3-22.5,21.5-29.3,33.2l-0.1,0.1c-1,1.6-1.9,3.1-2.8,4.5
			c-3.5,5.9-6.3,10.5-11.8,11.1L634.6,788.2L634.6,788.2L634.6,788.2z M611,744.5c7.9,8.5,12.7,17.6,16.5,24.9
			c2.6,5,5.3,10.2,7.4,11.3c1.7-0.7,3.5-3.7,5.7-7.4c0.8-1.4,1.8-3,2.8-4.7c7.3-12.5,16.4-26.6,31.8-35.7
			c13.9-8.4,29.8-12.3,44.6-10.9c18.3,0.3,34.5,14.8,45.2,24.4c2.7,2.4,6,5.3,7.9,6.6c0.6-2,1.2-7.1,0.8-20.1
			c-0.3-11.4-0.3-23.5,2.3-34.2c3.4-16.4,13-29.8,27.6-39c12.9-8.1,29.6-12.6,47-12.6h0.3c2.4-0.2,5-0.2,7.6-0.1
			c5.7,0,11.6,0.1,15.6-1.9c0.8-1.2-1.4-5.8-6.5-13.7c-1.6-2.5-3.1-4.8-4-6.7c-12.3-22-15.1-42.5-8.3-60.9
			c7.5-20.4,26.5-36.9,54.9-47.6c3.9-1.8,5.4-2.8,6-3.3c-1.7-3.2-9.4-6.7-14.6-9c-2.7-1.2-5.2-2.3-7.3-3.5l-1.3-0.7
			c-7.5-3.7-15.3-7.6-22.1-13.1c-11.2-8.8-18.7-25.6-20.1-44.8c-1.5-19.8,3.6-39.2,13.9-53.4c1-1.8,2.7-4,4.4-6.2
			c1.5-2,4-5.3,5.1-7.4c-2.3-0.2-6.3,0-9.4,0.2c-19.4,1.5-38.6-1.4-52.6-8.1c-18.2-8.1-26.6-11.8-31.5-33.2
			c-2-7.8-1.5-27.4-1.1-41.7c0.2-5.9,0.3-11,0.2-13.3v-0.2c0-1.9-0.4-2.4-0.4-2.4c0,0-0.1-0.1-0.5-0.1c-0.7,0-2.4,0.2-5.6,1.7
			c-3.6,1.7-7.8,4.2-11.5,6.5c-3.4,2.1-6.4,3.9-8.6,4.9c-25.8,12.6-48.3,15.8-67,9.4c-17.4-5.9-31.7-20.3-42.5-42.6
			c-1-1.6-2-3.9-3.1-6.5c-1.3-3-3.9-8.8-5.7-10.8c-0.6,0.7-1.7,2.2-3.5,5.3c-11.2,26-33.1,46.3-58.4,54.3
			c-20.9,6.6-41.6,4.3-59.8-6.7c-3.1-1.8-6.5-4.2-9.5-6.2c-1.3-0.9-2.5-1.7-3.6-2.4c-2.5-1.7-4-2.4-4.8-2.7
			c-0.2,0.9-0.3,2.7-0.2,6.3c3.4,26.4-3,49.8-17.9,65.9c-13.9,15.1-34.1,22.6-58.4,21.7c-2.4-0.1-5.1-0.2-7.7-0.3
			c-4-0.2-8.2-0.4-11.5-0.3c-4.2,0.1-5.7,0.7-6.3,1c-0.4,3.8,4.2,10.1,9,16.8c11.4,15.8,27,37.4,15.3,67.4
			c-7.7,21.3-28.6,39.6-57.1,50.2c-1.5,0.6-2.5,1.2-3.3,1.6c1,0.6,2.5,1.3,4.4,2.1c8.7,3.8,17.8,8.1,25.1,13.7
			c15.9,11,26.5,27.5,30.1,46.2c3.5,18.6-0.2,37.9-10.5,54.5c-1.5,2.6-3.4,5.5-5.2,8.2c-1.5,2.4-3,4.6-4.1,6.4
			c-1.5,2.5-1.9,3.7-2,4.3c0.4,0.1,1.3,0.4,3,0.4c2-0.1,4-0.1,6-0.2c20.4-0.7,43.4-1.5,60.4,10.1c12.4,7.6,21.4,21.3,26.8,40.7
			c3.8,13.9,5.6,30.9,4.9,46.7v0.1l1.3-0.7c5.2-2.9,13.9-7.9,24.1-12.4c17.5-8.4,33-11.7,47.4-9.9
			C584.6,722.5,598.7,730.5,611,744.5L611,744.5L611,744.5z"/>
	</g>
	<ellipse class="st1" cx="636" cy="509.5" rx="168.9" ry="167"/>
	<path class="st2" d="M636,509.5v1v-1.9V509.5z"/>
	<path class="st3" d="M650.2,425.1c36.6,4.4,72.6,42.6,70.5,85.4"/>
</g>
</svg>
