<?xml version="1.0" encoding="UTF-8"?>
<svg id="_图层_1" xmlns="http://www.w3.org/2000/svg" version="1.1" viewBox="0 0 1280 1024">
  <!-- Generator: Adobe Illustrator 29.3.1, SVG Export Plug-In . SVG Version: 2.1.0 Build 151)  -->
  <defs>
    <style>
      .st0 {
        fill: #6affec;
        stroke: #666;
        stroke-miterlimit: 10;
        stroke-width: 7.4px;
      }
    </style>
  </defs>
  <path class="st0" d="M1009,765.7c-37.1,40.4-100.8,63.6-165.6,66.3-36.7,1.5-73.5-3-108.1-12.2-15.6-4.1-31.3-9.3-44-17.4-12.5-8-20.7-18.5-25-30.3-1.6-4.4-2.8-9.1-3.5-14,32.2-.2,70.1-5.7,84.9-27.8,7.2-10.7,7.7-24-2.9-33.6-8.9-8.1-23.7-11.4-37.4-10.6-34.9,2.1-51.5,27.3-55.2,50.5-.7,4.3-1,8.7-1,13-28.8-.6-58-5.2-84.9-11.9-29.6-7.3-59.1-19.8-74-41.1-13-18.6-14.8-44.2,7.1-59.6,3.2-2.2,6.8-4.1,10.7-5.4,8.1.5,16.2.6,24.3.4,22.1-.6,44.2-2.9,65.9-5.9,18.5-2.5,36.8-5.8,54.5-10.5,34.6-9.1,67.5-23.9,87.9-47.2,12.2-13.9,19.6-32.1,12.2-48.4-5.3-11.8-17.2-21.4-32.7-25.1,16.3-11.5,28.4-26.1,32.5-42.9,1.3-5.2-9.4-7.4-10.7-2.2-5.8,23.8-28.7,42.6-56.8,53.7-34.3,13.6-75,14.3-112.6,10.2-37.5-4.1-76.9-11.1-109.8-25.5-30.1-13.1-56.5-35.4-59.6-62.3-2.9-25.6,21-54.1,57.9-55.5,1.8,0,3.2-.7,4.1-1.5,22.1,10.9,46,19.6,70.9,26.4,17.8,4.9,36,8.8,54.4,11.9,19.4,3.3,39.6,6.5,59.5,6.7,20.1.2,38.6-4.7,55.5-12.6,8.4-4,16.4-8.5,24.2-13.1,7.3-4.3,14.7-8.5,21.1-13.5,13.6-10.6,18.6-23.8,13.8-38.1-4-11.9-13.1-22.9-24.1-32-20.9-17.2-50.6-27.9-81.4-30.6-29.6-2.6-70.4,2.4-87,23.1-8.7,10.9-4.5,23.3,8.6,30.9,6.5,3.8,14.1,6.4,21.7,8.6,6.1,1.8,13.3,2.5,19.6.9,6.5-1.6,9.4-5.4,8.5-10.4-1-5.2-11.7-3-10.7,2.2.3,1.4-11.1.2-12.5-.2-6.5-1.6-13.1-4.1-18.7-7-5.8-3.1-10.4-7.6-10.2-13.2.2-5.6,5-10.3,10.3-13.9,20-13.7,53-15.6,78.4-11.8,26.4,3.9,51.1,14.2,68.4,29.7,9.4,8.4,17.3,19,19.5,30,2.7,13.8-7.8,23.8-21.2,32.2-12.9,8.1-26.5,16.1-41.2,22.2-16.7,6.9-34.1,9.1-53,7.8-32.8-2.3-66.1-8.7-97.1-17-30.6-8.2-59.9-19.3-85.8-34-12.8-7.3-24.8-15.5-35.3-24.5-10.7-9.1-21.1-20.7-20.1-33.4,1-12.5,13-24,23.2-33.3,9.7-8.8,20.8-16.8,32.9-23.8,24.6-14.2,53.5-24.3,83.9-29.2,7.6-1.2,15.2-2.1,22.9-2.6,7.1-.5,7.1-8.8,0-8.3-35.6,2.5-69.9,11.5-99.8,26.2-14.6,7.2-28.1,15.6-40,25.2-12.4,10-24.8,21.5-31.1,34.3-13.9,28.1,20.5,53.7,46.9,70.1,4.3,2.7,8.8,5.3,13.3,7.8-31.2,4-55.5,24.8-60.6,47.9-6.2,28,14.2,55.8,42.4,73.4,32.1,19.9,73.7,29,113.9,35,42.1,6.3,87.8,8.6,128.4-3.8,11.4-3.5,22.3-8.1,32.2-13.7.5.1,1,.2,1.5.3,15.8,1.4,27.7,11.8,31.7,22.7,5,13.7-2,28.3-12,39.8-18.1,20.7-47.6,34.2-78.1,42.6-33,9.1-68.7,13.8-103.7,16.1-8.6.6-17.3.9-26.1.8-.6-1.5-2.3-2.7-5.1-2.5-4.1.3-7.9,1-11.5,1.9-23.3-1.6-45.9-6.5-65.3-17.1-15.5-8.5-27-20.5-31.4-34.5-4.7-14.8-1.2-30.7,9.3-43.7,3.7-4.6-5.9-8.7-9.6-4.2-20.5,25.4-15.7,58.5,11.4,80,18.7,14.8,43.8,22.9,70.1,26.3-16.7,11-23.8,30.2-20.8,46.7,4.7,26.2,28.6,46.6,59.1,58.9,16.3,6.6,34,11,51.9,14.4,19.9,3.7,40.3,6.5,60.8,7.5,2.4.1,5,.2,7.5.3,2.3,19.9,12.8,39.3,34.4,52,14.7,8.7,32.3,14.3,50,18.8,19.7,5,40.1,8.5,60.7,10.3,75.1,6.8,154.3-10.9,205.4-53.6,5.9-4.9,11.3-10.2,16.3-15.6,4-4.4-5.6-8.5-9.6-4.2h0ZM680.2,705.2c8.8-7.4,20.8-11.4,34.2-10.8,12.4.6,23.9,5.8,26.9,15.2,3.6,11.3-5.7,22.9-18,29.1-14.4,7.2-32.4,9.8-49.4,10.8-3.9.2-7.9.3-11.8.4-.5-16.2,4.5-33.1,18.1-44.6h0Z"/>
</svg>