<?xml version="1.0" encoding="utf-8"?>
<!-- Generator: Adobe Illustrator 28.3.0, SVG Export Plug-In . SVG Version: 6.00 Build 0)  -->
<svg version="1.1" id="_图层_1" xmlns="http://www.w3.org/2000/svg" xmlns:xlink="http://www.w3.org/1999/xlink" x="0px" y="0px"
	 viewBox="0 0 1280 1024" style="enable-background:new 0 0 1280 1024;" xml:space="preserve">
<style type="text/css">
	.st0{fill:#D0D0D0;stroke:#666666;stroke-width:7.35;stroke-miterlimit:10;}
</style>
<g>
	<path class="st0" d="M1004.8,755.4c-37.1,40.4-100.8,63.7-165.6,66.3c-36.7,1.5-73.5-3-108.1-12.2c-15.6-4.1-31.3-9.3-44-17.4
		c-12.5-8-20.7-18.5-25-30.3c-1.6-4.4-2.8-9.1-3.5-14c32.2-0.2,70.1-5.7,84.9-27.8c7.2-10.7,7.7-24-2.9-33.6
		c-8.9-8.1-23.7-11.4-37.4-10.6c-34.8,2.1-51.5,27.3-55.2,50.5c-0.7,4.3-1,8.7-1,13c-28.8-0.6-58-5.2-84.9-11.9
		c-29.6-7.3-59.1-19.8-74-41.1c-13-18.5-14.8-44.2,7.1-59.6c3.1-2.2,6.8-4.1,10.7-5.4c8.1,0.5,16.2,0.6,24.3,0.4
		c22.1-0.5,44.2-2.9,65.9-5.9c18.5-2.5,36.8-5.8,54.5-10.5c34.6-9.1,67.5-23.9,87.9-47.2c12.2-13.9,19.6-32.1,12.2-48.4
		c-5.3-11.8-17.2-21.4-32.7-25.1c16.3-11.5,28.4-26.1,32.5-42.9c1.3-5.2-9.4-7.4-10.7-2.2c-5.8,23.8-28.7,42.6-56.8,53.7
		c-34.3,13.5-75,14.3-112.6,10.2c-37.5-4.1-76.9-11.1-109.8-25.5c-30.1-13.1-56.5-35.5-59.6-62.3c-2.9-25.6,21-54.1,57.9-55.5
		c1.8-0.1,3.2-0.7,4.1-1.5c22,10.9,46,19.6,70.9,26.4c17.8,4.9,36,8.8,54.4,11.9c19.3,3.3,39.6,6.5,59.5,6.7
		c20.1,0.2,38.6-4.7,55.5-12.6c8.4-4,16.4-8.5,24.2-13.1c7.3-4.2,14.7-8.5,21.1-13.5c13.6-10.6,18.6-23.8,13.8-38.1
		c-4-11.9-13.1-22.9-24.1-32c-20.9-17.2-50.6-27.9-81.4-30.6c-29.5-2.6-70.4,2.4-87,23.1c-8.7,10.9-4.5,23.3,8.6,30.9
		c6.5,3.8,14.1,6.4,21.7,8.6c6.1,1.8,13.3,2.5,19.6,0.9c6.5-1.6,9.4-5.4,8.5-10.4c-1-5.2-11.7-3-10.7,2.2c0.3,1.4-11.2,0.2-12.5-0.2
		c-6.5-1.6-13.2-4.1-18.7-7c-5.8-3.1-10.4-7.6-10.2-13.2s5-10.4,10.3-14c20-13.7,53-15.6,78.4-11.8c26.4,3.9,51.1,14.2,68.4,29.7
		c9.5,8.4,17.3,19,19.5,30c2.7,13.8-7.8,23.8-21.2,32.2c-12.9,8.1-26.5,16.1-41.2,22.2c-16.7,6.9-34.1,9.1-53,7.8
		c-32.8-2.3-66.1-8.7-97.1-17c-30.6-8.2-59.9-19.3-85.8-34c-12.8-7.3-24.8-15.5-35.4-24.5c-10.7-9.1-21-20.7-20.1-33.4
		c1-12.5,13-24,23.2-33.3c9.7-8.8,20.8-16.8,32.9-23.8c24.6-14.2,53.5-24.3,83.9-29.2c7.6-1.2,15.2-2.1,22.9-2.6
		c7.1-0.5,7.1-8.8,0-8.3c-35.6,2.5-69.9,11.5-99.7,26.2c-14.6,7.2-28.1,15.6-40,25.2c-12.4,10-24.8,21.5-31.1,34.3
		c-13.9,28.1,20.5,53.7,46.9,70.1c4.3,2.7,8.8,5.3,13.3,7.8c-31.2,4-55.5,24.8-60.5,47.9c-6.2,28,14.2,55.8,42.4,73.4
		c32.1,19.9,73.7,29,113.9,35c42.1,6.3,87.8,8.6,128.4-3.8c11.4-3.5,22.3-8.1,32.2-13.8c0.5,0.1,1,0.2,1.5,0.3
		c15.8,1.4,27.7,11.8,31.7,22.7c5,13.7-2,28.3-12,39.8c-18.1,20.7-47.6,34.2-78.1,42.6c-33,9.1-68.7,13.8-103.7,16.1
		c-8.6,0.6-17.3,0.9-26.1,0.8c-0.6-1.5-2.3-2.7-5.1-2.5c-4.1,0.3-7.9,1-11.5,1.9c-23.3-1.6-45.9-6.5-65.3-17.1
		c-15.5-8.5-27-20.5-31.4-34.5c-4.7-14.8-1.2-30.7,9.3-43.7c3.7-4.6-5.9-8.7-9.6-4.2c-20.5,25.4-15.7,58.5,11.5,80
		c18.7,14.8,43.8,22.9,70.1,26.3c-16.7,11-23.8,30.2-20.8,46.7c4.7,26.2,28.6,46.6,59.1,58.9c16.3,6.5,34,11,51.9,14.4
		c19.9,3.7,40.3,6.5,60.8,7.5c2.4,0.1,5,0.2,7.5,0.3c2.3,19.9,12.8,39.2,34.4,52c14.8,8.7,32.3,14.3,50,18.8
		c19.7,5,40.1,8.5,60.7,10.3c75.1,6.8,154.3-10.9,205.4-53.6c5.9-4.9,11.3-10.2,16.3-15.6C1018.5,755.2,1008.9,751.1,1004.8,755.4
		L1004.8,755.4L1004.8,755.4z M675.9,694.9c8.8-7.4,20.8-11.4,34.2-10.8c12.4,0.6,23.9,5.8,26.9,15.2c3.6,11.3-5.7,22.9-18,29
		c-14.3,7.2-32.3,9.8-49.4,10.8c-3.9,0.2-7.9,0.3-11.8,0.4C657.4,723.3,662.3,706.4,675.9,694.9L675.9,694.9L675.9,694.9z"/>
</g>
</svg>
