<?xml version="1.0" encoding="utf-8"?>
<!-- Generator: Adobe Illustrator 28.3.0, SVG Export Plug-In . SVG Version: 6.00 Build 0)  -->
<svg version="1.1" id="_图层_1" xmlns="http://www.w3.org/2000/svg" xmlns:xlink="http://www.w3.org/1999/xlink" x="0px" y="0px"
	 viewBox="0 0 683.4 505.3" style="enable-background:new 0 0 683.4 505.3;" xml:space="preserve">
<style type="text/css">
	.st0{fill:#7FE0FF;stroke:#4D4D4D;stroke-width:4.429;stroke-miterlimit:10;}
	.st1{fill:#55F3FF;stroke:#666666;stroke-width:4.429;stroke-miterlimit:10;}
	.st2{fill:#94D9FF;stroke:#808080;stroke-width:4.429;stroke-miterlimit:10;}
	.st3{fill:#7DCCE4;stroke:#999999;stroke-width:4.429;stroke-miterlimit:10;}
</style>
<path class="st0" d="M448.7,166.2c-7.5-14.9-20.2-23.1-32.9-24.4c-11.6-1.2-24.7,3.9-32,17.5c-7.3,13.6-5,32.3,3.9,43.3
	c4.4,5.5,10.2,9,16.2,8.5c5.9-0.5,11.8-5.4,12.2-14.5c0.2-3.8-0.8-7.5-2.9-10c-2-2.3-4.9,1.7-2.9,4.1c1.9,2.3,2.1,5.9,1,9
	c-1.3,3.7-4.5,5.3-7.2,5.6c-5.4,0.6-10.6-2.6-14.4-7.8c-3.6-4.9-6.2-11.8-6.4-19c-0.2-7.5,2.2-14.4,6-19.4
	c8-10.8,20.3-13.4,30.9-10.8c11.5,2.9,22.5,12.1,27.8,27.3c5,14.3,4.5,33.1-3.2,45.4c-8.8,14-23.4,19.7-36,23.1
	c-14.6,4-29.7,4.8-44.6,5.2c-15.2,0.4-30.3-0.1-45.5-0.4c-30.6-0.7-61.2-1.6-91.9-2.5c-3.8-0.1-7.6-0.2-11.3-0.3
	c-2.6-0.1-2.6,5.7,0,5.8c34.1,1,68.3,2,102.4,2.8c16.9,0.4,33.8,0.9,50.7,0.3c16.1-0.6,32.5-1.8,48.2-7.4c13.1-4.7,28.5-13,35-31.2
	C457.5,200.5,455.9,180.5,448.7,166.2L448.7,166.2L448.7,166.2L448.7,166.2z"/>
<path class="st1" d="M353.4,292.7c-1.5-5.3-4.2-10.3-8.1-12.2c-2.3-1.1-4.8-1-7.2-0.9c-2.8,0.1-5.7,0.1-8.5,0.2l-66.4,1.5
	c-25,0.6-49.9,1.2-74.9,1.7c-2.6,0.1-2.6,5.8,0,5.8l118.2-2.7c9.7-0.2,19.4-0.5,29.1-0.7c4.4-0.1,8.9-1,12,4.5
	c2.2,4,3.3,9.4,3.4,14.4c0.2,10.5-3.2,20.9-8.5,28.2c-5.7,7.9-13.3,12.5-20.9,15.5c-8.7,3.4-19.8,6.9-28.1,0.2
	c-3.2-2.6-6.6-7.3-6.7-12.8c-0.1-3.9,2.2-3.7,4.3-3.9c2.8-0.2,5.5-0.4,8.3-0.6c2.6-0.2,2.6-5.9,0-5.8c-2.5,0.2-5,0.4-7.6,0.6
	c-2.3,0.2-4.9,0-6.8,2c-3,3.2-2.6,9.3-1.3,13.6c3.5,11.6,12.7,16.4,21.1,16.3c9.2-0.1,19-3.6,27.4-8.8c7.8-4.8,15-12.5,19.1-23.3
	C355.2,315.6,356.5,303.4,353.4,292.7L353.4,292.7L353.4,292.7z"/>
<path class="st2" d="M506.2,298.1c-2.8-8.2-9.2-13.3-15.2-15.8c-8.3-3.5-17.2-3.6-25.8-3.7c-9.2-0.1-18.4-0.1-27.6-0.1
	c-20.9,0-41.7,0-62.6,0c-2.6,0-2.6,5.8,0,5.8c16,0,32-0.1,47.9-0.1c15.9,0,31.8-0.2,47.7,0.2c7.2,0.2,14.9,0.8,21.7,4.6
	c4.9,2.7,10.1,7.9,11.1,15.6c1.2,9.6-4.5,18.3-9.6,23.4c-5.4,5.5-11.7,9.5-18,12.2c-6.5,2.8-14.2,4.4-20.2-1.2
	c-2.9-2.8-4.9-7.5-2.1-11.7c2.8-4.3,7.5-3.9,11.3-3.8c2.6,0.1,2.6-5.6,0-5.8c-3.9-0.2-8-0.2-11.5,2.5c-2.8,2.2-5.1,6.2-5.3,10.9
	c-0.5,10.1,8,15.9,13.9,17c7.3,1.3,14.7-1.8,21.4-5.8c7-4.1,14-9.4,18.9-17.6C506.9,317.4,509.5,307.4,506.2,298.1L506.2,298.1
	L506.2,298.1z"/>
<path class="st3" d="M351.7,132.2c-7-8.1-17.2-13.2-27.3-16.2c-9.9-2.9-21.4-4.3-31.3-0.4c-11.4,4.6-18,16.8-14.8,28.9
	c3.1,12.2,15.8,19.2,27.9,17c3.6-0.7,2.1-6.2-1.5-5.5c-9.8,1.8-19.9-5-21.3-15c-1.4-9.8,5-18.3,14.2-20.9c9.3-2.6,19.5-0.7,28.4,2.4
	c8.6,3,17.5,7.8,23,15.3c7,9.5,6.1,21.4,2.2,32c-3.6,9.8-10.2,18.5-19.3,23.7c-9.2,5.3-20,7-30.5,7.7c-11.6,0.8-23.3,0.6-34.9,0.8
	c-29.3,0.4-58.7,0.8-88,1.2c-3.6,0.1-3.7,5.8,0,5.7c29.7-0.4,59.4-0.8,89.1-1.3c13.2-0.2,26.6,0.2,39.7-1.3
	c11.6-1.3,23.2-4.2,32.6-11.5C357.9,181.2,367.8,150.9,351.7,132.2L351.7,132.2L351.7,132.2L351.7,132.2z"/>
</svg>
