<?xml version="1.0" encoding="utf-8"?>
<!-- Generator: Adobe Illustrator 28.3.0, SVG Export Plug-In . SVG Version: 6.00 Build 0)  -->
<svg version="1.1" id="_图层_1" xmlns="http://www.w3.org/2000/svg" xmlns:xlink="http://www.w3.org/1999/xlink" x="0px" y="0px"
	 viewBox="0 0 683.4 505.3" style="enable-background:new 0 0 683.4 505.3;" xml:space="preserve">
<style type="text/css">
	.st0{fill:#C6C6C6;stroke:#4D4D4D;stroke-width:4.429;stroke-miterlimit:10;}
	.st1{fill:#C5C5C5;stroke:#666666;stroke-width:4.429;stroke-miterlimit:10;}
	.st2{fill:#C8C8C8;stroke:#808080;stroke-width:4.429;stroke-miterlimit:10;}
	.st3{fill:#B7B7B7;stroke:#999999;stroke-width:4.429;stroke-miterlimit:10;}
</style>
<g>
	<path class="st0" d="M444.8,162.6c-7.5-14.9-20.1-23-32.8-24.3c-11.6-1.2-24.7,3.9-32.1,17.4c-7.4,13.6-5,32.3,3.9,43.3
		c4.4,5.5,10.2,9,16.2,8.4c6-0.5,11.8-5.4,12.2-14.5c0.2-3.7-0.8-7.5-2.8-9.9c-2.1-2.4-4.9,1.8-2.8,4.1c2,2.3,2.2,6,1.1,9
		c-1.4,3.7-4.4,5.3-7.2,5.6c-5.4,0.7-10.6-2.6-14.4-7.8c-3.6-4.9-6.2-11.8-6.4-18.9c-0.2-7.5,2.3-14.4,6-19.4
		c7.9-10.8,20.3-13.4,30.9-10.8c11.5,2.8,22.4,12.1,27.7,27.3c5,14.3,4.5,33-3.2,45.3c-8.8,14-23.4,19.7-36,23.1
		c-14.6,3.9-29.7,4.8-44.5,5.2c-15.2,0.4-30.3-0.1-45.5-0.4c-30.6-0.7-61.3-1.6-91.9-2.5c-3.8-0.1-7.5-0.3-11.3-0.4
		c-2.6-0.1-2.6,5.7,0,5.8c34.1,1.1,68.2,2.1,102.3,2.8c16.9,0.4,33.8,1,50.7,0.3c16.1-0.6,32.5-1.9,48.2-7.5
		c13.1-4.7,28.5-13,35-31.2C453.5,196.9,452,176.8,444.8,162.6L444.8,162.6L444.8,162.6z"/>
	<path class="st1" d="M349.6,289.1c-1.6-5.3-4.2-10.3-8.1-12.2c-2.4-1.2-4.8-1-7.2-1c-2.8,0.1-5.7,0.2-8.5,0.2l-66.4,1.6
		c-25,0.6-49.9,1.2-74.9,1.8c-2.6,0.1-2.6,5.8,0,5.8l118.1-2.7c9.7-0.3,19.4-0.5,29.1-0.7c4.4-0.1,8.9-1,12,4.5
		c2.3,4,3.2,9.3,3.4,14.4c0.3,10.5-3.2,20.9-8.5,28.2c-5.7,7.8-13.2,12.5-20.9,15.5c-8.7,3.3-19.8,7-28.1,0.3
		c-3.1-2.5-6.6-7.4-6.8-12.8c-0.1-3.9,2.2-3.7,4.3-3.8c2.7-0.2,5.5-0.4,8.3-0.7c2.6-0.2,2.6-6,0-5.8c-2.5,0.2-5,0.4-7.5,0.6
		c-2.4,0.2-4.9-0.1-6.9,2c-3,3.2-2.6,9.2-1.4,13.6c3.5,11.6,12.7,16.4,21.1,16.3c9.2-0.1,19-3.6,27.4-8.7c7.8-4.8,15-12.5,19.1-23.2
		C351.3,311.9,352.7,299.8,349.6,289.1L349.6,289.1L349.6,289.1z"/>
	<path class="st2" d="M502.3,294.5c-2.8-8.2-9.2-13.3-15.2-15.9c-8.2-3.5-17.2-3.6-25.8-3.7c-9.2-0.1-18.4-0.1-27.5-0.2
		c-20.9-0.1-41.7,0-62.5,0.1c-2.6,0-2.6,5.8,0,5.8c16-0.1,32-0.1,47.9-0.1c15.9,0,31.8-0.3,47.6,0.3c7.3,0.3,14.9,0.8,21.7,4.6
		c4.9,2.7,10.1,7.8,11.1,15.7c1.3,9.6-4.5,18.2-9.6,23.4c-5.4,5.5-11.7,9.5-18,12.3c-6.5,2.8-14.2,4.4-20.2-1.3
		c-2.9-2.7-4.9-7.5-2.2-11.7c2.8-4.3,7.5-3.9,11.3-3.7c2.6,0.1,2.6-5.7,0-5.8c-3.9-0.2-8-0.3-11.5,2.5c-2.8,2.3-5.1,6.3-5.3,10.9
		c-0.5,10.1,7.9,16,13.9,17.1c7.3,1.4,14.7-1.9,21.4-5.8c7-4.1,14-9.3,18.9-17.5C503.1,313.8,505.6,303.8,502.3,294.5L502.3,294.5
		L502.3,294.5z"/>
	<path class="st3" d="M347.9,128.6c-7-8.1-17.3-13.1-27.4-16.2c-9.9-2.9-21.4-4.3-31.3-0.4c-11.4,4.6-17.9,16.8-14.8,28.9
		c3.1,12.2,15.9,19.2,27.8,17.1c3.6-0.7,2.1-6.2-1.6-5.5c-9.8,1.9-19.9-5-21.3-15c-1.4-9.8,5-18.3,14.2-20.9
		c9.2-2.6,19.5-0.7,28.4,2.5c8.6,2.9,17.4,7.7,22.9,15.3c7,9.5,6.1,21.4,2.3,32.1c-3.6,9.8-10.2,18.4-19.3,23.6
		c-9.2,5.3-20,7.1-30.5,7.7c-11.6,0.8-23.2,0.6-34.9,0.8c-29.3,0.4-58.6,0.9-88,1.3c-3.6,0.1-3.6,5.8,0,5.7
		c29.7-0.5,59.4-0.9,89.1-1.3c13.2-0.2,26.6,0.2,39.7-1.3c11.6-1.3,23.2-4.2,32.6-11.5C354,177.6,364,147.3,347.9,128.6L347.9,128.6
		L347.9,128.6z"/>
</g>
</svg>
